<?xml version="1.0" encoding="utf-8" standalone="no"?>
<!DOCTYPE svg PUBLIC "-//W3C//DTD SVG 1.1//EN"
  "http://www.w3.org/Graphics/SVG/1.1/DTD/svg11.dtd">
<svg xmlns:xlink="http://www.w3.org/1999/xlink" width="520.56pt" height="218.16pt" viewBox="0 0 520.56 218.16" xmlns="http://www.w3.org/2000/svg" version="1.1">
 <metadata>
  <rdf:RDF xmlns:dc="http://purl.org/dc/elements/1.1/" xmlns:cc="http://creativecommons.org/ns#" xmlns:rdf="http://www.w3.org/1999/02/22-rdf-syntax-ns#">
   <cc:Work>
    <dc:type rdf:resource="http://purl.org/dc/dcmitype/StillImage"/>
    <dc:date>2026-09-15T18:14:38.509140</dc:date>
    <dc:format>image/svg+xml</dc:format>
    <dc:creator>
     <cc:Agent>
      <dc:title>Matplotlib v3.7.5, https://matplotlib.org/</dc:title>
     </cc:Agent>
    </dc:creator>
   </cc:Work>
  </rdf:RDF>
 </metadata>
 <defs>
  <style type="text/css">*{stroke-linejoin: round; stroke-linecap: butt}</style>
 </defs>
 <g id="figure_1">
  <g id="patch_1">
   <path d="M 0 218.16 
L 520.56 218.16 
L 520.56 0 
L 0 0 
z
" style="fill: #ffffff"/>
  </g>
  <g id="axes_1">
   <g id="patch_2">
    <path d="M 8.395714 99.764211 
L 78.261429 99.764211 
Q 81.938571 99.764211 81.938571 96.037895 
L 81.938571 55.048421 
Q 81.938571 51.322105 78.261429 51.322105 
L 8.395714 51.322105 
Q 4.718571 51.322105 4.718571 55.048421 
L 4.718571 96.037895 
Q 4.718571 99.764211 8.395714 99.764211 
z
" clip-path="url(#p9740d85cb8)" style="fill: #edf4fa; stroke: #245b84; stroke-width: 1.2; stroke-linejoin: miter"/>
   </g>
   <g id="patch_3">
    <path d="M 102.162857 99.764211 
L 172.028571 99.764211 
Q 175.705714 99.764211 175.705714 96.037895 
L 175.705714 55.048421 
Q 175.705714 51.322105 172.028571 51.322105 
L 102.162857 51.322105 
Q 98.485714 51.322105 98.485714 55.048421 
L 98.485714 96.037895 
Q 98.485714 99.764211 102.162857 99.764211 
z
" clip-path="url(#p9740d85cb8)" style="fill: #edf4fa; stroke: #245b84; stroke-width: 1.2; stroke-linejoin: miter"/>
   </g>
   <g id="patch_4">
    <path d="M 192.252857 198.511579 
L 506.648571 198.511579 
Q 510.325714 198.511579 510.325714 194.785263 
L 510.325714 14.058947 
Q 510.325714 10.332632 506.648571 10.332632 
L 192.252857 10.332632 
Q 188.575714 10.332632 188.575714 14.058947 
L 188.575714 194.785263 
Q 188.575714 198.511579 192.252857 198.511579 
z
" clip-path="url(#p9740d85cb8)" style="fill: #fffaf5; stroke: #c56b25; stroke-width: 1.2; stroke-linejoin: miter"/>
   </g>
   <g id="patch_5">
    <path d="M 203.284286 99.764211 
L 276.827143 99.764211 
Q 280.504286 99.764211 280.504286 96.037895 
L 280.504286 55.048421 
Q 280.504286 51.322105 276.827143 51.322105 
L 203.284286 51.322105 
Q 199.607143 51.322105 199.607143 55.048421 
L 199.607143 96.037895 
Q 199.607143 99.764211 203.284286 99.764211 
z
" clip-path="url(#p9740d85cb8)" style="fill: #ffffff; stroke: #c56b25; stroke-width: 1.2; stroke-linejoin: miter"/>
   </g>
   <g id="patch_6">
    <path d="M 300.728571 99.764211 
L 379.787143 99.764211 
Q 383.464286 99.764211 383.464286 96.037895 
L 383.464286 55.048421 
Q 383.464286 51.322105 379.787143 51.322105 
L 300.728571 51.322105 
Q 297.051429 51.322105 297.051429 55.048421 
L 297.051429 96.037895 
Q 297.051429 99.764211 300.728571 99.764211 
z
" clip-path="url(#p9740d85cb8)" style="fill: #ffffff; stroke: #c56b25; stroke-width: 1.2; stroke-linejoin: miter"/>
   </g>
   <g id="patch_7">
    <path d="M 403.688571 99.764211 
L 495.617143 99.764211 
Q 499.294286 99.764211 499.294286 96.037895 
L 499.294286 55.048421 
Q 499.294286 51.322105 495.617143 51.322105 
L 403.688571 51.322105 
Q 400.011429 51.322105 400.011429 55.048421 
L 400.011429 96.037895 
Q 400.011429 99.764211 403.688571 99.764211 
z
" clip-path="url(#p9740d85cb8)" style="fill: #ffffff; stroke: #c56b25; stroke-width: 1.2; stroke-linejoin: miter"/>
   </g>
   <g id="patch_8">
    <path d="M 300.728571 174.290526 
L 379.787143 174.290526 
Q 383.464286 174.290526 383.464286 170.564211 
L 383.464286 129.574737 
Q 383.464286 125.848421 379.787143 125.848421 
L 300.728571 125.848421 
Q 297.051429 125.848421 297.051429 129.574737 
L 297.051429 170.564211 
Q 297.051429 174.290526 300.728571 174.290526 
z
" clip-path="url(#p9740d85cb8)" style="fill: #ffffff; stroke: #328277; stroke-width: 1.2; stroke-linejoin: miter"/>
   </g>
   <g id="patch_9">
    <path d="M 203.284286 174.290526 
L 276.827143 174.290526 
Q 280.504286 174.290526 280.504286 170.564211 
L 280.504286 129.574737 
Q 280.504286 125.848421 276.827143 125.848421 
L 203.284286 125.848421 
Q 199.607143 125.848421 199.607143 129.574737 
L 199.607143 170.564211 
Q 199.607143 174.290526 203.284286 174.290526 
z
" clip-path="url(#p9740d85cb8)" style="fill: #ffffff; stroke: #328277; stroke-width: 1.2; stroke-linejoin: miter"/>
   </g>
   <g id="patch_10">
    <path d="M 403.688571 174.290526 
L 495.617143 174.290526 
Q 499.294286 174.290526 499.294286 170.564211 
L 499.294286 129.574737 
Q 499.294286 125.848421 495.617143 125.848421 
L 403.688571 125.848421 
Q 400.011429 125.848421 400.011429 129.574737 
L 400.011429 170.564211 
Q 400.011429 174.290526 403.688571 174.290526 
z
" clip-path="url(#p9740d85cb8)" style="fill: #ffffff; stroke: #245b84; stroke-width: 1.2; stroke-linejoin: miter"/>
   </g>
   <g id="patch_11">
    <path d="M 23.104286 174.290526 
L 159.158571 174.290526 
Q 162.835714 174.290526 162.835714 170.564211 
L 162.835714 129.574737 
Q 162.835714 125.848421 159.158571 125.848421 
L 23.104286 125.848421 
Q 19.427143 125.848421 19.427143 129.574737 
L 19.427143 170.564211 
Q 19.427143 174.290526 23.104286 174.290526 
z
" clip-path="url(#p9740d85cb8)" style="fill: #edf7f5; stroke: #328277; stroke-width: 1.2; stroke-linejoin: miter"/>
   </g>
   <g id="patch_12">
    <path d="M 85.168125 75.543158 
Q 90.21222 75.543158 95.256316 75.543158 
" clip-path="url(#p9740d85cb8)" style="fill: none; stroke: #245b84; stroke-width: 1.1; stroke-linecap: round"/>
    <path d="M 88.768125 77.343158 
L 85.168125 75.543158 
L 88.768125 73.743158 
" clip-path="url(#p9740d85cb8)" style="fill: none; stroke: #245b84; stroke-width: 1.1; stroke-linecap: round"/>
    <path d="M 91.656316 73.743158 
L 95.256316 75.543158 
L 91.656316 77.343158 
" clip-path="url(#p9740d85cb8)" style="fill: none; stroke: #245b84; stroke-width: 1.1; stroke-linecap: round"/>
   </g>
   <g id="patch_13">
    <path d="M 178.934145 75.543158 
Q 187.65443 75.543158 196.374715 75.543158 
" clip-path="url(#p9740d85cb8)" style="fill: none; stroke: #245b84; stroke-width: 1.1; stroke-linecap: round"/>
    <path d="M 182.534145 77.343158 
L 178.934145 75.543158 
L 182.534145 73.743158 
" clip-path="url(#p9740d85cb8)" style="fill: none; stroke: #245b84; stroke-width: 1.1; stroke-linecap: round"/>
    <path d="M 192.774715 73.743158 
L 196.374715 75.543158 
L 192.774715 77.343158 
" clip-path="url(#p9740d85cb8)" style="fill: none; stroke: #245b84; stroke-width: 1.1; stroke-linecap: round"/>
   </g>
   <g id="patch_14">
    <path d="M 282.504001 75.543158 
Q 288.777935 75.543158 293.82203 75.543158 
" clip-path="url(#p9740d85cb8)" style="fill: none; stroke: #c56b25; stroke-width: 1.1; stroke-linecap: round"/>
    <path d="M 290.22203 73.743158 
L 293.82203 75.543158 
L 290.22203 77.343158 
z
" clip-path="url(#p9740d85cb8)" style="fill: #c56b25; stroke: #c56b25; stroke-width: 1.1; stroke-linecap: round"/>
   </g>
   <g id="patch_15">
    <path d="M 385.464001 75.543158 
Q 391.737935 75.543158 396.78203 75.543158 
" clip-path="url(#p9740d85cb8)" style="fill: none; stroke: #c56b25; stroke-width: 1.1; stroke-linecap: round"/>
    <path d="M 393.18203 73.743158 
L 396.78203 75.543158 
L 393.18203 77.343158 
z
" clip-path="url(#p9740d85cb8)" style="fill: #c56b25; stroke: #c56b25; stroke-width: 1.1; stroke-linecap: round"/>
   </g>
   <g id="patch_16">
    <path d="M 340.074 123.845617 
Q 340.074 112.805856 340.074 102.995932 
" clip-path="url(#p9740d85cb8)" style="fill: none; stroke: #328277; stroke-width: 1.1; stroke-linecap: round"/>
    <path d="M 338.274 106.595932 
L 340.074 102.995932 
L 341.874 106.595932 
z
" clip-path="url(#p9740d85cb8)" style="fill: #328277; stroke: #328277; stroke-width: 1.1; stroke-linecap: round"/>
   </g>
   <g id="patch_17">
    <path d="M 293.821875 150.069474 
Q 288.77778 150.069474 283.733684 150.069474 
" clip-path="url(#p9740d85cb8)" style="fill: none; stroke: #328277; stroke-width: 1.1; stroke-linecap: round"/>
    <path d="M 290.221875 148.269474 
L 293.821875 150.069474 
L 290.221875 151.869474 
" clip-path="url(#p9740d85cb8)" style="fill: none; stroke: #328277; stroke-width: 1.1; stroke-linecap: round"/>
    <path d="M 287.333684 151.869474 
L 283.733684 150.069474 
L 287.333684 148.269474 
" clip-path="url(#p9740d85cb8)" style="fill: none; stroke: #328277; stroke-width: 1.1; stroke-linecap: round"/>
   </g>
   <g id="patch_18">
    <path d="M 240.055714 102.996852 
Q 240.055714 112.806775 240.055714 122.616699 
" clip-path="url(#p9740d85cb8)" style="fill: none; stroke: #328277; stroke-width: 1.1; stroke-linecap: round"/>
    <path d="M 238.255714 106.596852 
L 240.055714 102.996852 
L 241.855714 106.596852 
" clip-path="url(#p9740d85cb8)" style="fill: none; stroke: #328277; stroke-width: 1.1; stroke-linecap: round"/>
    <path d="M 241.855714 119.016699 
L 240.055714 122.616699 
L 238.255714 119.016699 
" clip-path="url(#p9740d85cb8)" style="fill: none; stroke: #328277; stroke-width: 1.1; stroke-linecap: round"/>
   </g>
   <g id="patch_19">
    <path d="M 166.063023 150.069474 
Q 181.220498 150.069474 196.377973 150.069474 
" clip-path="url(#p9740d85cb8)" style="fill: none; stroke: #328277; stroke-width: 1.1; stroke-linecap: round"/>
    <path d="M 169.663023 151.869474 
L 166.063023 150.069474 
L 169.663023 148.269474 
" clip-path="url(#p9740d85cb8)" style="fill: none; stroke: #328277; stroke-width: 1.1; stroke-linecap: round"/>
    <path d="M 192.777973 148.269474 
L 196.377973 150.069474 
L 192.777973 151.869474 
" clip-path="url(#p9740d85cb8)" style="fill: none; stroke: #328277; stroke-width: 1.1; stroke-linecap: round"/>
   </g>
   <g id="patch_20">
    <path d="M 385.464001 150.069474 
Q 391.737935 150.069474 396.78203 150.069474 
" clip-path="url(#p9740d85cb8)" style="fill: none; stroke: #245b84; stroke-width: 1.1; stroke-linecap: round"/>
    <path d="M 393.18203 148.269474 
L 396.78203 150.069474 
L 393.18203 151.869474 
z
" clip-path="url(#p9740d85cb8)" style="fill: #245b84; stroke: #245b84; stroke-width: 1.1; stroke-linecap: round"/>
   </g>
   <g id="patch_21">
    <path d="M 449.652857 123.845617 
Q 449.652857 112.805856 449.652857 102.995932 
" clip-path="url(#p9740d85cb8)" style="fill: none; stroke: #245b84; stroke-width: 1.1; stroke-linecap: round"/>
    <path d="M 447.852857 106.595932 
L 449.652857 102.995932 
L 451.452857 106.595932 
z
" clip-path="url(#p9740d85cb8)" style="fill: #245b84; stroke: #245b84; stroke-width: 1.1; stroke-linecap: round"/>
   </g>
   <g id="patch_22">
    <path d="M 240.055714 41.397878 
Q 240.055714 45.359331 240.055714 48.090947 
" clip-path="url(#p9740d85cb8)" style="fill: none; stroke: #c56b25; stroke-width: 1.1; stroke-linecap: round"/>
    <path d="M 241.855714 44.490947 
L 240.055714 48.090947 
L 238.255714 44.490947 
z
" clip-path="url(#p9740d85cb8)" style="fill: #c56b25; stroke: #c56b25; stroke-width: 1.1; stroke-linecap: round"/>
   </g>
   <g id="line2d_1">
    <path d="M 449.652857 51.322105 
L 449.652857 39.397895 
L 240.055714 39.397895 
" clip-path="url(#p9740d85cb8)" style="fill: none; stroke: #c56b25; stroke-width: 1.1; stroke-linecap: square"/>
   </g>
   <g id="text_1">
    <!-- VORTEX SimX -->
    <g style="fill: #1c2935" transform="translate(17.478767 69.21433) scale(0.075 -0.075)">
     <defs>
      <path id="DejaVuSans-56" d="M 1831 0 
L 50 4666 
L 709 4666 
L 2188 738 
L 3669 4666 
L 4325 4666 
L 2547 0 
L 1831 0 
z
" transform="scale(0.015625)"/>
      <path id="DejaVuSans-4f" d="M 2522 4238 
Q 1834 4238 1429 3725 
Q 1025 3213 1025 2328 
Q 1025 1447 1429 934 
Q 1834 422 2522 422 
Q 3209 422 3611 934 
Q 4013 1447 4013 2328 
Q 4013 3213 3611 3725 
Q 3209 4238 2522 4238 
z
M 2522 4750 
Q 3503 4750 4090 4092 
Q 4678 3434 4678 2328 
Q 4678 1225 4090 567 
Q 3503 -91 2522 -91 
Q 1538 -91 948 565 
Q 359 1222 359 2328 
Q 359 3434 948 4092 
Q 1538 4750 2522 4750 
z
" transform="scale(0.015625)"/>
      <path id="DejaVuSans-52" d="M 2841 2188 
Q 3044 2119 3236 1894 
Q 3428 1669 3622 1275 
L 4263 0 
L 3584 0 
L 2988 1197 
Q 2756 1666 2539 1819 
Q 2322 1972 1947 1972 
L 1259 1972 
L 1259 0 
L 628 0 
L 628 4666 
L 2053 4666 
Q 2853 4666 3247 4331 
Q 3641 3997 3641 3322 
Q 3641 2881 3436 2590 
Q 3231 2300 2841 2188 
z
M 1259 4147 
L 1259 2491 
L 2053 2491 
Q 2509 2491 2742 2702 
Q 2975 2913 2975 3322 
Q 2975 3731 2742 3939 
Q 2509 4147 2053 4147 
L 1259 4147 
z
" transform="scale(0.015625)"/>
      <path id="DejaVuSans-54" d="M -19 4666 
L 3928 4666 
L 3928 4134 
L 2272 4134 
L 2272 0 
L 1638 0 
L 1638 4134 
L -19 4134 
L -19 4666 
z
" transform="scale(0.015625)"/>
      <path id="DejaVuSans-45" d="M 628 4666 
L 3578 4666 
L 3578 4134 
L 1259 4134 
L 1259 2753 
L 3481 2753 
L 3481 2222 
L 1259 2222 
L 1259 531 
L 3634 531 
L 3634 0 
L 628 0 
L 628 4666 
z
" transform="scale(0.015625)"/>
      <path id="DejaVuSans-58" d="M 403 4666 
L 1081 4666 
L 2241 2931 
L 3406 4666 
L 4084 4666 
L 2584 2425 
L 4184 0 
L 3506 0 
L 2194 1984 
L 872 0 
L 191 0 
L 1856 2491 
L 403 4666 
z
" transform="scale(0.015625)"/>
      <path id="DejaVuSans-20" transform="scale(0.015625)"/>
      <path id="DejaVuSans-53" d="M 3425 4513 
L 3425 3897 
Q 3066 4069 2747 4153 
Q 2428 4238 2131 4238 
Q 1616 4238 1336 4038 
Q 1056 3838 1056 3469 
Q 1056 3159 1242 3001 
Q 1428 2844 1947 2747 
L 2328 2669 
Q 3034 2534 3370 2195 
Q 3706 1856 3706 1288 
Q 3706 609 3251 259 
Q 2797 -91 1919 -91 
Q 1588 -91 1214 -16 
Q 841 59 441 206 
L 441 856 
Q 825 641 1194 531 
Q 1563 422 1919 422 
Q 2459 422 2753 634 
Q 3047 847 3047 1241 
Q 3047 1584 2836 1778 
Q 2625 1972 2144 2069 
L 1759 2144 
Q 1053 2284 737 2584 
Q 422 2884 422 3419 
Q 422 4038 858 4394 
Q 1294 4750 2059 4750 
Q 2388 4750 2728 4690 
Q 3069 4631 3425 4513 
z
" transform="scale(0.015625)"/>
      <path id="DejaVuSans-69" d="M 603 3500 
L 1178 3500 
L 1178 0 
L 603 0 
L 603 3500 
z
M 603 4863 
L 1178 4863 
L 1178 4134 
L 603 4134 
L 603 4863 
z
" transform="scale(0.015625)"/>
      <path id="DejaVuSans-6d" d="M 3328 2828 
Q 3544 3216 3844 3400 
Q 4144 3584 4550 3584 
Q 5097 3584 5394 3201 
Q 5691 2819 5691 2113 
L 5691 0 
L 5113 0 
L 5113 2094 
Q 5113 2597 4934 2840 
Q 4756 3084 4391 3084 
Q 3944 3084 3684 2787 
Q 3425 2491 3425 1978 
L 3425 0 
L 2847 0 
L 2847 2094 
Q 2847 2600 2669 2842 
Q 2491 3084 2119 3084 
Q 1678 3084 1418 2786 
Q 1159 2488 1159 1978 
L 1159 0 
L 581 0 
L 581 3500 
L 1159 3500 
L 1159 2956 
Q 1356 3278 1631 3431 
Q 1906 3584 2284 3584 
Q 2666 3584 2933 3390 
Q 3200 3197 3328 2828 
z
" transform="scale(0.015625)"/>
     </defs>
     <use xlink:href="#DejaVuSans-56"/>
     <use xlink:href="#DejaVuSans-4f" x="66.658203"/>
     <use xlink:href="#DejaVuSans-52" x="145.369141"/>
     <use xlink:href="#DejaVuSans-54" x="207.601562"/>
     <use xlink:href="#DejaVuSans-45" x="268.685547"/>
     <use xlink:href="#DejaVuSans-58" x="331.869141"/>
     <use xlink:href="#DejaVuSans-20" x="400.375"/>
     <use xlink:href="#DejaVuSans-53" x="432.162109"/>
     <use xlink:href="#DejaVuSans-69" x="495.638672"/>
     <use xlink:href="#DejaVuSans-6d" x="523.421875"/>
     <use xlink:href="#DejaVuSans-58" x="620.833984"/>
    </g>
    <!-- RV32IMF kernel -->
    <g style="fill: #1c2935" transform="translate(14.356892 77.612689) scale(0.075 -0.075)">
     <defs>
      <path id="DejaVuSans-33" d="M 2597 2516 
Q 3050 2419 3304 2112 
Q 3559 1806 3559 1356 
Q 3559 666 3084 287 
Q 2609 -91 1734 -91 
Q 1441 -91 1130 -33 
Q 819 25 488 141 
L 488 750 
Q 750 597 1062 519 
Q 1375 441 1716 441 
Q 2309 441 2620 675 
Q 2931 909 2931 1356 
Q 2931 1769 2642 2001 
Q 2353 2234 1838 2234 
L 1294 2234 
L 1294 2753 
L 1863 2753 
Q 2328 2753 2575 2939 
Q 2822 3125 2822 3475 
Q 2822 3834 2567 4026 
Q 2313 4219 1838 4219 
Q 1578 4219 1281 4162 
Q 984 4106 628 3988 
L 628 4550 
Q 988 4650 1302 4700 
Q 1616 4750 1894 4750 
Q 2613 4750 3031 4423 
Q 3450 4097 3450 3541 
Q 3450 3153 3228 2886 
Q 3006 2619 2597 2516 
z
" transform="scale(0.015625)"/>
      <path id="DejaVuSans-32" d="M 1228 531 
L 3431 531 
L 3431 0 
L 469 0 
L 469 531 
Q 828 903 1448 1529 
Q 2069 2156 2228 2338 
Q 2531 2678 2651 2914 
Q 2772 3150 2772 3378 
Q 2772 3750 2511 3984 
Q 2250 4219 1831 4219 
Q 1534 4219 1204 4116 
Q 875 4013 500 3803 
L 500 4441 
Q 881 4594 1212 4672 
Q 1544 4750 1819 4750 
Q 2544 4750 2975 4387 
Q 3406 4025 3406 3419 
Q 3406 3131 3298 2873 
Q 3191 2616 2906 2266 
Q 2828 2175 2409 1742 
Q 1991 1309 1228 531 
z
" transform="scale(0.015625)"/>
      <path id="DejaVuSans-49" d="M 628 4666 
L 1259 4666 
L 1259 0 
L 628 0 
L 628 4666 
z
" transform="scale(0.015625)"/>
      <path id="DejaVuSans-4d" d="M 628 4666 
L 1569 4666 
L 2759 1491 
L 3956 4666 
L 4897 4666 
L 4897 0 
L 4281 0 
L 4281 4097 
L 3078 897 
L 2444 897 
L 1241 4097 
L 1241 0 
L 628 0 
L 628 4666 
z
" transform="scale(0.015625)"/>
      <path id="DejaVuSans-46" d="M 628 4666 
L 3309 4666 
L 3309 4134 
L 1259 4134 
L 1259 2759 
L 3109 2759 
L 3109 2228 
L 1259 2228 
L 1259 0 
L 628 0 
L 628 4666 
z
" transform="scale(0.015625)"/>
      <path id="DejaVuSans-6b" d="M 581 4863 
L 1159 4863 
L 1159 1991 
L 2875 3500 
L 3609 3500 
L 1753 1863 
L 3688 0 
L 2938 0 
L 1159 1709 
L 1159 0 
L 581 0 
L 581 4863 
z
" transform="scale(0.015625)"/>
      <path id="DejaVuSans-65" d="M 3597 1894 
L 3597 1613 
L 953 1613 
Q 991 1019 1311 708 
Q 1631 397 2203 397 
Q 2534 397 2845 478 
Q 3156 559 3463 722 
L 3463 178 
Q 3153 47 2828 -22 
Q 2503 -91 2169 -91 
Q 1331 -91 842 396 
Q 353 884 353 1716 
Q 353 2575 817 3079 
Q 1281 3584 2069 3584 
Q 2775 3584 3186 3129 
Q 3597 2675 3597 1894 
z
M 3022 2063 
Q 3016 2534 2758 2815 
Q 2500 3097 2075 3097 
Q 1594 3097 1305 2825 
Q 1016 2553 972 2059 
L 3022 2063 
z
" transform="scale(0.015625)"/>
      <path id="DejaVuSans-72" d="M 2631 2963 
Q 2534 3019 2420 3045 
Q 2306 3072 2169 3072 
Q 1681 3072 1420 2755 
Q 1159 2438 1159 1844 
L 1159 0 
L 581 0 
L 581 3500 
L 1159 3500 
L 1159 2956 
Q 1341 3275 1631 3429 
Q 1922 3584 2338 3584 
Q 2397 3584 2469 3576 
Q 2541 3569 2628 3553 
L 2631 2963 
z
" transform="scale(0.015625)"/>
      <path id="DejaVuSans-6e" d="M 3513 2113 
L 3513 0 
L 2938 0 
L 2938 2094 
Q 2938 2591 2744 2837 
Q 2550 3084 2163 3084 
Q 1697 3084 1428 2787 
Q 1159 2491 1159 1978 
L 1159 0 
L 581 0 
L 581 3500 
L 1159 3500 
L 1159 2956 
Q 1366 3272 1645 3428 
Q 1925 3584 2291 3584 
Q 2894 3584 3203 3211 
Q 3513 2838 3513 2113 
z
" transform="scale(0.015625)"/>
      <path id="DejaVuSans-6c" d="M 603 4863 
L 1178 4863 
L 1178 0 
L 603 0 
L 603 4863 
z
" transform="scale(0.015625)"/>
     </defs>
     <use xlink:href="#DejaVuSans-52"/>
     <use xlink:href="#DejaVuSans-56" x="63.982422"/>
     <use xlink:href="#DejaVuSans-33" x="132.390625"/>
     <use xlink:href="#DejaVuSans-32" x="196.013672"/>
     <use xlink:href="#DejaVuSans-49" x="259.636719"/>
     <use xlink:href="#DejaVuSans-4d" x="289.128906"/>
     <use xlink:href="#DejaVuSans-46" x="375.408203"/>
     <use xlink:href="#DejaVuSans-20" x="432.927734"/>
     <use xlink:href="#DejaVuSans-6b" x="464.714844"/>
     <use xlink:href="#DejaVuSans-65" x="519"/>
     <use xlink:href="#DejaVuSans-72" x="580.523438"/>
     <use xlink:href="#DejaVuSans-6e" x="619.886719"/>
     <use xlink:href="#DejaVuSans-65" x="683.265625"/>
     <use xlink:href="#DejaVuSans-6c" x="744.789062"/>
    </g>
    <!-- 2 ns clock -->
    <g style="fill: #1c2935" transform="translate(24.597321 86.011049) scale(0.075 -0.075)">
     <defs>
      <path id="DejaVuSans-73" d="M 2834 3397 
L 2834 2853 
Q 2591 2978 2328 3040 
Q 2066 3103 1784 3103 
Q 1356 3103 1142 2972 
Q 928 2841 928 2578 
Q 928 2378 1081 2264 
Q 1234 2150 1697 2047 
L 1894 2003 
Q 2506 1872 2764 1633 
Q 3022 1394 3022 966 
Q 3022 478 2636 193 
Q 2250 -91 1575 -91 
Q 1294 -91 989 -36 
Q 684 19 347 128 
L 347 722 
Q 666 556 975 473 
Q 1284 391 1588 391 
Q 1994 391 2212 530 
Q 2431 669 2431 922 
Q 2431 1156 2273 1281 
Q 2116 1406 1581 1522 
L 1381 1569 
Q 847 1681 609 1914 
Q 372 2147 372 2553 
Q 372 3047 722 3315 
Q 1072 3584 1716 3584 
Q 2034 3584 2315 3537 
Q 2597 3491 2834 3397 
z
" transform="scale(0.015625)"/>
      <path id="DejaVuSans-63" d="M 3122 3366 
L 3122 2828 
Q 2878 2963 2633 3030 
Q 2388 3097 2138 3097 
Q 1578 3097 1268 2742 
Q 959 2388 959 1747 
Q 959 1106 1268 751 
Q 1578 397 2138 397 
Q 2388 397 2633 464 
Q 2878 531 3122 666 
L 3122 134 
Q 2881 22 2623 -34 
Q 2366 -91 2075 -91 
Q 1284 -91 818 406 
Q 353 903 353 1747 
Q 353 2603 823 3093 
Q 1294 3584 2113 3584 
Q 2378 3584 2631 3529 
Q 2884 3475 3122 3366 
z
" transform="scale(0.015625)"/>
      <path id="DejaVuSans-6f" d="M 1959 3097 
Q 1497 3097 1228 2736 
Q 959 2375 959 1747 
Q 959 1119 1226 758 
Q 1494 397 1959 397 
Q 2419 397 2687 759 
Q 2956 1122 2956 1747 
Q 2956 2369 2687 2733 
Q 2419 3097 1959 3097 
z
M 1959 3584 
Q 2709 3584 3137 3096 
Q 3566 2609 3566 1747 
Q 3566 888 3137 398 
Q 2709 -91 1959 -91 
Q 1206 -91 779 398 
Q 353 888 353 1747 
Q 353 2609 779 3096 
Q 1206 3584 1959 3584 
z
" transform="scale(0.015625)"/>
     </defs>
     <use xlink:href="#DejaVuSans-32"/>
     <use xlink:href="#DejaVuSans-20" x="63.623047"/>
     <use xlink:href="#DejaVuSans-6e" x="95.410156"/>
     <use xlink:href="#DejaVuSans-73" x="158.789062"/>
     <use xlink:href="#DejaVuSans-20" x="210.888672"/>
     <use xlink:href="#DejaVuSans-63" x="242.675781"/>
     <use xlink:href="#DejaVuSans-6c" x="297.65625"/>
     <use xlink:href="#DejaVuSans-6f" x="325.439453"/>
     <use xlink:href="#DejaVuSans-63" x="386.621094"/>
     <use xlink:href="#DejaVuSans-6b" x="441.601562"/>
    </g>
   </g>
   <g id="text_2">
    <!-- AXI256 -->
    <g style="fill: #1c2935" transform="translate(123.697667 69.21433) scale(0.075 -0.075)">
     <defs>
      <path id="DejaVuSans-41" d="M 2188 4044 
L 1331 1722 
L 3047 1722 
L 2188 4044 
z
M 1831 4666 
L 2547 4666 
L 4325 0 
L 3669 0 
L 3244 1197 
L 1141 1197 
L 716 0 
L 50 0 
L 1831 4666 
z
" transform="scale(0.015625)"/>
      <path id="DejaVuSans-35" d="M 691 4666 
L 3169 4666 
L 3169 4134 
L 1269 4134 
L 1269 2991 
Q 1406 3038 1543 3061 
Q 1681 3084 1819 3084 
Q 2600 3084 3056 2656 
Q 3513 2228 3513 1497 
Q 3513 744 3044 326 
Q 2575 -91 1722 -91 
Q 1428 -91 1123 -41 
Q 819 9 494 109 
L 494 744 
Q 775 591 1075 516 
Q 1375 441 1709 441 
Q 2250 441 2565 725 
Q 2881 1009 2881 1497 
Q 2881 1984 2565 2268 
Q 2250 2553 1709 2553 
Q 1456 2553 1204 2497 
Q 953 2441 691 2322 
L 691 4666 
z
" transform="scale(0.015625)"/>
      <path id="DejaVuSans-36" d="M 2113 2584 
Q 1688 2584 1439 2293 
Q 1191 2003 1191 1497 
Q 1191 994 1439 701 
Q 1688 409 2113 409 
Q 2538 409 2786 701 
Q 3034 994 3034 1497 
Q 3034 2003 2786 2293 
Q 2538 2584 2113 2584 
z
M 3366 4563 
L 3366 3988 
Q 3128 4100 2886 4159 
Q 2644 4219 2406 4219 
Q 1781 4219 1451 3797 
Q 1122 3375 1075 2522 
Q 1259 2794 1537 2939 
Q 1816 3084 2150 3084 
Q 2853 3084 3261 2657 
Q 3669 2231 3669 1497 
Q 3669 778 3244 343 
Q 2819 -91 2113 -91 
Q 1303 -91 875 529 
Q 447 1150 447 2328 
Q 447 3434 972 4092 
Q 1497 4750 2381 4750 
Q 2619 4750 2861 4703 
Q 3103 4656 3366 4563 
z
" transform="scale(0.015625)"/>
     </defs>
     <use xlink:href="#DejaVuSans-41"/>
     <use xlink:href="#DejaVuSans-58" x="68.408203"/>
     <use xlink:href="#DejaVuSans-49" x="136.914062"/>
     <use xlink:href="#DejaVuSans-32" x="166.40625"/>
     <use xlink:href="#DejaVuSans-35" x="230.029297"/>
     <use xlink:href="#DejaVuSans-36" x="293.652344"/>
    </g>
    <!-- AXI2Flit / UCIe -->
    <g style="fill: #1c2935" transform="translate(110.335363 77.612689) scale(0.075 -0.075)">
     <defs>
      <path id="DejaVuSans-74" d="M 1172 4494 
L 1172 3500 
L 2356 3500 
L 2356 3053 
L 1172 3053 
L 1172 1153 
Q 1172 725 1289 603 
Q 1406 481 1766 481 
L 2356 481 
L 2356 0 
L 1766 0 
Q 1100 0 847 248 
Q 594 497 594 1153 
L 594 3053 
L 172 3053 
L 172 3500 
L 594 3500 
L 594 4494 
L 1172 4494 
z
" transform="scale(0.015625)"/>
      <path id="DejaVuSans-2f" d="M 1625 4666 
L 2156 4666 
L 531 -594 
L 0 -594 
L 1625 4666 
z
" transform="scale(0.015625)"/>
      <path id="DejaVuSans-55" d="M 556 4666 
L 1191 4666 
L 1191 1831 
Q 1191 1081 1462 751 
Q 1734 422 2344 422 
Q 2950 422 3222 751 
Q 3494 1081 3494 1831 
L 3494 4666 
L 4128 4666 
L 4128 1753 
Q 4128 841 3676 375 
Q 3225 -91 2344 -91 
Q 1459 -91 1007 375 
Q 556 841 556 1753 
L 556 4666 
z
" transform="scale(0.015625)"/>
      <path id="DejaVuSans-43" d="M 4122 4306 
L 4122 3641 
Q 3803 3938 3442 4084 
Q 3081 4231 2675 4231 
Q 1875 4231 1450 3742 
Q 1025 3253 1025 2328 
Q 1025 1406 1450 917 
Q 1875 428 2675 428 
Q 3081 428 3442 575 
Q 3803 722 4122 1019 
L 4122 359 
Q 3791 134 3420 21 
Q 3050 -91 2638 -91 
Q 1578 -91 968 557 
Q 359 1206 359 2328 
Q 359 3453 968 4101 
Q 1578 4750 2638 4750 
Q 3056 4750 3426 4639 
Q 3797 4528 4122 4306 
z
" transform="scale(0.015625)"/>
     </defs>
     <use xlink:href="#DejaVuSans-41"/>
     <use xlink:href="#DejaVuSans-58" x="68.408203"/>
     <use xlink:href="#DejaVuSans-49" x="136.914062"/>
     <use xlink:href="#DejaVuSans-32" x="166.40625"/>
     <use xlink:href="#DejaVuSans-46" x="230.029297"/>
     <use xlink:href="#DejaVuSans-6c" x="287.548828"/>
     <use xlink:href="#DejaVuSans-69" x="315.332031"/>
     <use xlink:href="#DejaVuSans-74" x="343.115234"/>
     <use xlink:href="#DejaVuSans-20" x="382.324219"/>
     <use xlink:href="#DejaVuSans-2f" x="414.111328"/>
     <use xlink:href="#DejaVuSans-20" x="447.802734"/>
     <use xlink:href="#DejaVuSans-55" x="479.589844"/>
     <use xlink:href="#DejaVuSans-43" x="552.783203"/>
     <use xlink:href="#DejaVuSans-49" x="622.607422"/>
     <use xlink:href="#DejaVuSans-65" x="652.099609"/>
    </g>
    <!-- 250 B FDI -->
    <g style="fill: #1c2935" transform="translate(118.830871 86.011049) scale(0.075 -0.075)">
     <defs>
      <path id="DejaVuSans-30" d="M 2034 4250 
Q 1547 4250 1301 3770 
Q 1056 3291 1056 2328 
Q 1056 1369 1301 889 
Q 1547 409 2034 409 
Q 2525 409 2770 889 
Q 3016 1369 3016 2328 
Q 3016 3291 2770 3770 
Q 2525 4250 2034 4250 
z
M 2034 4750 
Q 2819 4750 3233 4129 
Q 3647 3509 3647 2328 
Q 3647 1150 3233 529 
Q 2819 -91 2034 -91 
Q 1250 -91 836 529 
Q 422 1150 422 2328 
Q 422 3509 836 4129 
Q 1250 4750 2034 4750 
z
" transform="scale(0.015625)"/>
      <path id="DejaVuSans-42" d="M 1259 2228 
L 1259 519 
L 2272 519 
Q 2781 519 3026 730 
Q 3272 941 3272 1375 
Q 3272 1813 3026 2020 
Q 2781 2228 2272 2228 
L 1259 2228 
z
M 1259 4147 
L 1259 2741 
L 2194 2741 
Q 2656 2741 2882 2914 
Q 3109 3088 3109 3444 
Q 3109 3797 2882 3972 
Q 2656 4147 2194 4147 
L 1259 4147 
z
M 628 4666 
L 2241 4666 
Q 2963 4666 3353 4366 
Q 3744 4066 3744 3513 
Q 3744 3084 3544 2831 
Q 3344 2578 2956 2516 
Q 3422 2416 3680 2098 
Q 3938 1781 3938 1306 
Q 3938 681 3513 340 
Q 3088 0 2303 0 
L 628 0 
L 628 4666 
z
" transform="scale(0.015625)"/>
      <path id="DejaVuSans-44" d="M 1259 4147 
L 1259 519 
L 2022 519 
Q 2988 519 3436 956 
Q 3884 1394 3884 2338 
Q 3884 3275 3436 3711 
Q 2988 4147 2022 4147 
L 1259 4147 
z
M 628 4666 
L 1925 4666 
Q 3281 4666 3915 4102 
Q 4550 3538 4550 2338 
Q 4550 1131 3912 565 
Q 3275 0 1925 0 
L 628 0 
L 628 4666 
z
" transform="scale(0.015625)"/>
     </defs>
     <use xlink:href="#DejaVuSans-32"/>
     <use xlink:href="#DejaVuSans-35" x="63.623047"/>
     <use xlink:href="#DejaVuSans-30" x="127.246094"/>
     <use xlink:href="#DejaVuSans-20" x="190.869141"/>
     <use xlink:href="#DejaVuSans-42" x="222.65625"/>
     <use xlink:href="#DejaVuSans-20" x="291.259766"/>
     <use xlink:href="#DejaVuSans-46" x="323.046875"/>
     <use xlink:href="#DejaVuSans-44" x="380.566406"/>
     <use xlink:href="#DejaVuSans-49" x="457.568359"/>
    </g>
   </g>
   <g id="text_3">
    <!-- MEMORY LOGIC DIE  |  4 ns clock -->
    <g style="fill: #c56b25" transform="translate(275.493929 24.12) scale(0.08 -0.08)">
     <defs>
      <path id="DejaVuSans-Bold-4d" d="M 588 4666 
L 2119 4666 
L 3181 2169 
L 4250 4666 
L 5778 4666 
L 5778 0 
L 4641 0 
L 4641 3413 
L 3566 897 
L 2803 897 
L 1728 3413 
L 1728 0 
L 588 0 
L 588 4666 
z
" transform="scale(0.015625)"/>
      <path id="DejaVuSans-Bold-45" d="M 588 4666 
L 3834 4666 
L 3834 3756 
L 1791 3756 
L 1791 2888 
L 3713 2888 
L 3713 1978 
L 1791 1978 
L 1791 909 
L 3903 909 
L 3903 0 
L 588 0 
L 588 4666 
z
" transform="scale(0.015625)"/>
      <path id="DejaVuSans-Bold-4f" d="M 2719 3878 
Q 2169 3878 1866 3472 
Q 1563 3066 1563 2328 
Q 1563 1594 1866 1187 
Q 2169 781 2719 781 
Q 3272 781 3575 1187 
Q 3878 1594 3878 2328 
Q 3878 3066 3575 3472 
Q 3272 3878 2719 3878 
z
M 2719 4750 
Q 3844 4750 4481 4106 
Q 5119 3463 5119 2328 
Q 5119 1197 4481 553 
Q 3844 -91 2719 -91 
Q 1597 -91 958 553 
Q 319 1197 319 2328 
Q 319 3463 958 4106 
Q 1597 4750 2719 4750 
z
" transform="scale(0.015625)"/>
      <path id="DejaVuSans-Bold-52" d="M 2297 2597 
Q 2675 2597 2839 2737 
Q 3003 2878 3003 3200 
Q 3003 3519 2839 3656 
Q 2675 3794 2297 3794 
L 1791 3794 
L 1791 2597 
L 2297 2597 
z
M 1791 1766 
L 1791 0 
L 588 0 
L 588 4666 
L 2425 4666 
Q 3347 4666 3776 4356 
Q 4206 4047 4206 3378 
Q 4206 2916 3982 2619 
Q 3759 2322 3309 2181 
Q 3556 2125 3751 1926 
Q 3947 1728 4147 1325 
L 4800 0 
L 3519 0 
L 2950 1159 
Q 2778 1509 2601 1637 
Q 2425 1766 2131 1766 
L 1791 1766 
z
" transform="scale(0.015625)"/>
      <path id="DejaVuSans-Bold-59" d="M -63 4666 
L 1253 4666 
L 2316 3003 
L 3378 4666 
L 4697 4666 
L 2919 1966 
L 2919 0 
L 1716 0 
L 1716 1966 
L -63 4666 
z
" transform="scale(0.015625)"/>
      <path id="DejaVuSans-Bold-20" transform="scale(0.015625)"/>
      <path id="DejaVuSans-Bold-4c" d="M 588 4666 
L 1791 4666 
L 1791 909 
L 3903 909 
L 3903 0 
L 588 0 
L 588 4666 
z
" transform="scale(0.015625)"/>
      <path id="DejaVuSans-Bold-47" d="M 4781 347 
Q 4331 128 3847 18 
Q 3363 -91 2847 -91 
Q 1681 -91 1000 561 
Q 319 1213 319 2328 
Q 319 3456 1012 4103 
Q 1706 4750 2913 4750 
Q 3378 4750 3804 4662 
Q 4231 4575 4609 4403 
L 4609 3438 
Q 4219 3659 3833 3768 
Q 3447 3878 3059 3878 
Q 2341 3878 1952 3476 
Q 1563 3075 1563 2328 
Q 1563 1588 1938 1184 
Q 2313 781 3003 781 
Q 3191 781 3352 804 
Q 3513 828 3641 878 
L 3641 1784 
L 2906 1784 
L 2906 2591 
L 4781 2591 
L 4781 347 
z
" transform="scale(0.015625)"/>
      <path id="DejaVuSans-Bold-49" d="M 588 4666 
L 1791 4666 
L 1791 0 
L 588 0 
L 588 4666 
z
" transform="scale(0.015625)"/>
      <path id="DejaVuSans-Bold-43" d="M 4288 256 
Q 3956 84 3597 -3 
Q 3238 -91 2847 -91 
Q 1681 -91 1000 561 
Q 319 1213 319 2328 
Q 319 3447 1000 4098 
Q 1681 4750 2847 4750 
Q 3238 4750 3597 4662 
Q 3956 4575 4288 4403 
L 4288 3438 
Q 3953 3666 3628 3772 
Q 3303 3878 2944 3878 
Q 2300 3878 1931 3465 
Q 1563 3053 1563 2328 
Q 1563 1606 1931 1193 
Q 2300 781 2944 781 
Q 3303 781 3628 887 
Q 3953 994 4288 1222 
L 4288 256 
z
" transform="scale(0.015625)"/>
      <path id="DejaVuSans-Bold-44" d="M 1791 3756 
L 1791 909 
L 2222 909 
Q 2959 909 3348 1275 
Q 3738 1641 3738 2338 
Q 3738 3031 3350 3393 
Q 2963 3756 2222 3756 
L 1791 3756 
z
M 588 4666 
L 1856 4666 
Q 2919 4666 3439 4514 
Q 3959 4363 4331 4000 
Q 4659 3684 4818 3271 
Q 4978 2859 4978 2338 
Q 4978 1809 4818 1395 
Q 4659 981 4331 666 
Q 3956 303 3431 151 
Q 2906 0 1856 0 
L 588 0 
L 588 4666 
z
" transform="scale(0.015625)"/>
      <path id="DejaVuSans-Bold-7c" d="M 1522 4891 
L 1522 -1509 
L 813 -1509 
L 813 4891 
L 1522 4891 
z
" transform="scale(0.015625)"/>
      <path id="DejaVuSans-Bold-34" d="M 2356 3675 
L 1038 1722 
L 2356 1722 
L 2356 3675 
z
M 2156 4666 
L 3494 4666 
L 3494 1722 
L 4159 1722 
L 4159 850 
L 3494 850 
L 3494 0 
L 2356 0 
L 2356 850 
L 288 850 
L 288 1881 
L 2156 4666 
z
" transform="scale(0.015625)"/>
      <path id="DejaVuSans-Bold-6e" d="M 4056 2131 
L 4056 0 
L 2931 0 
L 2931 347 
L 2931 1631 
Q 2931 2084 2911 2256 
Q 2891 2428 2841 2509 
Q 2775 2619 2662 2680 
Q 2550 2741 2406 2741 
Q 2056 2741 1856 2470 
Q 1656 2200 1656 1722 
L 1656 0 
L 538 0 
L 538 3500 
L 1656 3500 
L 1656 2988 
Q 1909 3294 2193 3439 
Q 2478 3584 2822 3584 
Q 3428 3584 3742 3212 
Q 4056 2841 4056 2131 
z
" transform="scale(0.015625)"/>
      <path id="DejaVuSans-Bold-73" d="M 3272 3391 
L 3272 2541 
Q 2913 2691 2578 2766 
Q 2244 2841 1947 2841 
Q 1628 2841 1473 2761 
Q 1319 2681 1319 2516 
Q 1319 2381 1436 2309 
Q 1553 2238 1856 2203 
L 2053 2175 
Q 2913 2066 3209 1816 
Q 3506 1566 3506 1031 
Q 3506 472 3093 190 
Q 2681 -91 1863 -91 
Q 1516 -91 1145 -36 
Q 775 19 384 128 
L 384 978 
Q 719 816 1070 734 
Q 1422 653 1784 653 
Q 2113 653 2278 743 
Q 2444 834 2444 1013 
Q 2444 1163 2330 1236 
Q 2216 1309 1875 1350 
L 1678 1375 
Q 931 1469 631 1722 
Q 331 1975 331 2491 
Q 331 3047 712 3315 
Q 1094 3584 1881 3584 
Q 2191 3584 2531 3537 
Q 2872 3491 3272 3391 
z
" transform="scale(0.015625)"/>
      <path id="DejaVuSans-Bold-63" d="M 3366 3391 
L 3366 2478 
Q 3138 2634 2908 2709 
Q 2678 2784 2431 2784 
Q 1963 2784 1702 2511 
Q 1441 2238 1441 1747 
Q 1441 1256 1702 982 
Q 1963 709 2431 709 
Q 2694 709 2930 787 
Q 3166 866 3366 1019 
L 3366 103 
Q 3103 6 2833 -42 
Q 2563 -91 2291 -91 
Q 1344 -91 809 395 
Q 275 881 275 1747 
Q 275 2613 809 3098 
Q 1344 3584 2291 3584 
Q 2566 3584 2833 3536 
Q 3100 3488 3366 3391 
z
" transform="scale(0.015625)"/>
      <path id="DejaVuSans-Bold-6c" d="M 538 4863 
L 1656 4863 
L 1656 0 
L 538 0 
L 538 4863 
z
" transform="scale(0.015625)"/>
      <path id="DejaVuSans-Bold-6f" d="M 2203 2784 
Q 1831 2784 1636 2517 
Q 1441 2250 1441 1747 
Q 1441 1244 1636 976 
Q 1831 709 2203 709 
Q 2569 709 2762 976 
Q 2956 1244 2956 1747 
Q 2956 2250 2762 2517 
Q 2569 2784 2203 2784 
z
M 2203 3584 
Q 3106 3584 3614 3096 
Q 4122 2609 4122 1747 
Q 4122 884 3614 396 
Q 3106 -91 2203 -91 
Q 1297 -91 786 396 
Q 275 884 275 1747 
Q 275 2609 786 3096 
Q 1297 3584 2203 3584 
z
" transform="scale(0.015625)"/>
      <path id="DejaVuSans-Bold-6b" d="M 538 4863 
L 1656 4863 
L 1656 2216 
L 2944 3500 
L 4244 3500 
L 2534 1894 
L 4378 0 
L 3022 0 
L 1656 1459 
L 1656 0 
L 538 0 
L 538 4863 
z
" transform="scale(0.015625)"/>
     </defs>
     <use xlink:href="#DejaVuSans-Bold-4d"/>
     <use xlink:href="#DejaVuSans-Bold-45" x="99.511719"/>
     <use xlink:href="#DejaVuSans-Bold-4d" x="167.822266"/>
     <use xlink:href="#DejaVuSans-Bold-4f" x="267.333984"/>
     <use xlink:href="#DejaVuSans-Bold-52" x="352.34375"/>
     <use xlink:href="#DejaVuSans-Bold-59" x="423.845703"/>
     <use xlink:href="#DejaVuSans-Bold-20" x="496.257812"/>
     <use xlink:href="#DejaVuSans-Bold-4c" x="531.072266"/>
     <use xlink:href="#DejaVuSans-Bold-4f" x="591.167969"/>
     <use xlink:href="#DejaVuSans-Bold-47" x="676.177734"/>
     <use xlink:href="#DejaVuSans-Bold-49" x="758.257812"/>
     <use xlink:href="#DejaVuSans-Bold-43" x="795.464844"/>
     <use xlink:href="#DejaVuSans-Bold-20" x="868.853516"/>
     <use xlink:href="#DejaVuSans-Bold-44" x="903.667969"/>
     <use xlink:href="#DejaVuSans-Bold-49" x="986.675781"/>
     <use xlink:href="#DejaVuSans-Bold-45" x="1023.882812"/>
     <use xlink:href="#DejaVuSans-Bold-20" x="1092.193359"/>
     <use xlink:href="#DejaVuSans-Bold-20" x="1127.007812"/>
     <use xlink:href="#DejaVuSans-Bold-7c" x="1161.822266"/>
     <use xlink:href="#DejaVuSans-Bold-20" x="1198.345703"/>
     <use xlink:href="#DejaVuSans-Bold-20" x="1233.160156"/>
     <use xlink:href="#DejaVuSans-Bold-34" x="1267.974609"/>
     <use xlink:href="#DejaVuSans-Bold-20" x="1337.554688"/>
     <use xlink:href="#DejaVuSans-Bold-6e" x="1372.369141"/>
     <use xlink:href="#DejaVuSans-Bold-73" x="1443.560547"/>
     <use xlink:href="#DejaVuSans-Bold-20" x="1503.082031"/>
     <use xlink:href="#DejaVuSans-Bold-63" x="1537.896484"/>
     <use xlink:href="#DejaVuSans-Bold-6c" x="1597.173828"/>
     <use xlink:href="#DejaVuSans-Bold-6f" x="1631.451172"/>
     <use xlink:href="#DejaVuSans-Bold-63" x="1700.152344"/>
     <use xlink:href="#DejaVuSans-Bold-6b" x="1759.429688"/>
    </g>
   </g>
   <g id="text_4">
    <!-- Descriptor CSR -->
    <g style="fill: #1c2935" transform="translate(211.778371 69.21433) scale(0.075 -0.075)">
     <defs>
      <path id="DejaVuSans-70" d="M 1159 525 
L 1159 -1331 
L 581 -1331 
L 581 3500 
L 1159 3500 
L 1159 2969 
Q 1341 3281 1617 3432 
Q 1894 3584 2278 3584 
Q 2916 3584 3314 3078 
Q 3713 2572 3713 1747 
Q 3713 922 3314 415 
Q 2916 -91 2278 -91 
Q 1894 -91 1617 61 
Q 1341 213 1159 525 
z
M 3116 1747 
Q 3116 2381 2855 2742 
Q 2594 3103 2138 3103 
Q 1681 3103 1420 2742 
Q 1159 2381 1159 1747 
Q 1159 1113 1420 752 
Q 1681 391 2138 391 
Q 2594 391 2855 752 
Q 3116 1113 3116 1747 
z
" transform="scale(0.015625)"/>
     </defs>
     <use xlink:href="#DejaVuSans-44"/>
     <use xlink:href="#DejaVuSans-65" x="77.001953"/>
     <use xlink:href="#DejaVuSans-73" x="138.525391"/>
     <use xlink:href="#DejaVuSans-63" x="190.625"/>
     <use xlink:href="#DejaVuSans-72" x="245.605469"/>
     <use xlink:href="#DejaVuSans-69" x="286.71875"/>
     <use xlink:href="#DejaVuSans-70" x="314.501953"/>
     <use xlink:href="#DejaVuSans-74" x="377.978516"/>
     <use xlink:href="#DejaVuSans-6f" x="417.1875"/>
     <use xlink:href="#DejaVuSans-72" x="478.369141"/>
     <use xlink:href="#DejaVuSans-20" x="519.482422"/>
     <use xlink:href="#DejaVuSans-43" x="551.269531"/>
     <use xlink:href="#DejaVuSans-53" x="621.09375"/>
     <use xlink:href="#DejaVuSans-52" x="684.570312"/>
    </g>
    <!-- Epoch check -->
    <g style="fill: #1c2935" transform="translate(216.401417 77.612689) scale(0.075 -0.075)">
     <defs>
      <path id="DejaVuSans-68" d="M 3513 2113 
L 3513 0 
L 2938 0 
L 2938 2094 
Q 2938 2591 2744 2837 
Q 2550 3084 2163 3084 
Q 1697 3084 1428 2787 
Q 1159 2491 1159 1978 
L 1159 0 
L 581 0 
L 581 4863 
L 1159 4863 
L 1159 2956 
Q 1366 3272 1645 3428 
Q 1925 3584 2291 3584 
Q 2894 3584 3203 3211 
Q 3513 2838 3513 2113 
z
" transform="scale(0.015625)"/>
     </defs>
     <use xlink:href="#DejaVuSans-45"/>
     <use xlink:href="#DejaVuSans-70" x="63.183594"/>
     <use xlink:href="#DejaVuSans-6f" x="126.660156"/>
     <use xlink:href="#DejaVuSans-63" x="187.841797"/>
     <use xlink:href="#DejaVuSans-68" x="242.822266"/>
     <use xlink:href="#DejaVuSans-20" x="306.201172"/>
     <use xlink:href="#DejaVuSans-63" x="337.988281"/>
     <use xlink:href="#DejaVuSans-68" x="392.96875"/>
     <use xlink:href="#DejaVuSans-65" x="456.347656"/>
     <use xlink:href="#DejaVuSans-63" x="517.871094"/>
     <use xlink:href="#DejaVuSans-6b" x="572.851562"/>
    </g>
    <!-- Completion window -->
    <g style="fill: #1c2935" transform="translate(203.158058 86.011049) scale(0.075 -0.075)">
     <defs>
      <path id="DejaVuSans-77" d="M 269 3500 
L 844 3500 
L 1563 769 
L 2278 3500 
L 2956 3500 
L 3675 769 
L 4391 3500 
L 4966 3500 
L 4050 0 
L 3372 0 
L 2619 2869 
L 1863 0 
L 1184 0 
L 269 3500 
z
" transform="scale(0.015625)"/>
      <path id="DejaVuSans-64" d="M 2906 2969 
L 2906 4863 
L 3481 4863 
L 3481 0 
L 2906 0 
L 2906 525 
Q 2725 213 2448 61 
Q 2172 -91 1784 -91 
Q 1150 -91 751 415 
Q 353 922 353 1747 
Q 353 2572 751 3078 
Q 1150 3584 1784 3584 
Q 2172 3584 2448 3432 
Q 2725 3281 2906 2969 
z
M 947 1747 
Q 947 1113 1208 752 
Q 1469 391 1925 391 
Q 2381 391 2643 752 
Q 2906 1113 2906 1747 
Q 2906 2381 2643 2742 
Q 2381 3103 1925 3103 
Q 1469 3103 1208 2742 
Q 947 2381 947 1747 
z
" transform="scale(0.015625)"/>
     </defs>
     <use xlink:href="#DejaVuSans-43"/>
     <use xlink:href="#DejaVuSans-6f" x="69.824219"/>
     <use xlink:href="#DejaVuSans-6d" x="131.005859"/>
     <use xlink:href="#DejaVuSans-70" x="228.417969"/>
     <use xlink:href="#DejaVuSans-6c" x="291.894531"/>
     <use xlink:href="#DejaVuSans-65" x="319.677734"/>
     <use xlink:href="#DejaVuSans-74" x="381.201172"/>
     <use xlink:href="#DejaVuSans-69" x="420.410156"/>
     <use xlink:href="#DejaVuSans-6f" x="448.193359"/>
     <use xlink:href="#DejaVuSans-6e" x="509.375"/>
     <use xlink:href="#DejaVuSans-20" x="572.753906"/>
     <use xlink:href="#DejaVuSans-77" x="604.541016"/>
     <use xlink:href="#DejaVuSans-69" x="686.328125"/>
     <use xlink:href="#DejaVuSans-6e" x="714.111328"/>
     <use xlink:href="#DejaVuSans-64" x="777.490234"/>
     <use xlink:href="#DejaVuSans-6f" x="840.966797"/>
     <use xlink:href="#DejaVuSans-77" x="902.148438"/>
    </g>
   </g>
   <g id="text_5">
    <!-- BF16 Kmean banks -->
    <g style="fill: #1c2935" transform="translate(304.098482 69.21433) scale(0.075 -0.075)">
     <defs>
      <path id="DejaVuSans-31" d="M 794 531 
L 1825 531 
L 1825 4091 
L 703 3866 
L 703 4441 
L 1819 4666 
L 2450 4666 
L 2450 531 
L 3481 531 
L 3481 0 
L 794 0 
L 794 531 
z
" transform="scale(0.015625)"/>
      <path id="DejaVuSans-4b" d="M 628 4666 
L 1259 4666 
L 1259 2694 
L 3353 4666 
L 4166 4666 
L 1850 2491 
L 4331 0 
L 3500 0 
L 1259 2247 
L 1259 0 
L 628 0 
L 628 4666 
z
" transform="scale(0.015625)"/>
      <path id="DejaVuSans-61" d="M 2194 1759 
Q 1497 1759 1228 1600 
Q 959 1441 959 1056 
Q 959 750 1161 570 
Q 1363 391 1709 391 
Q 2188 391 2477 730 
Q 2766 1069 2766 1631 
L 2766 1759 
L 2194 1759 
z
M 3341 1997 
L 3341 0 
L 2766 0 
L 2766 531 
Q 2569 213 2275 61 
Q 1981 -91 1556 -91 
Q 1019 -91 701 211 
Q 384 513 384 1019 
Q 384 1609 779 1909 
Q 1175 2209 1959 2209 
L 2766 2209 
L 2766 2266 
Q 2766 2663 2505 2880 
Q 2244 3097 1772 3097 
Q 1472 3097 1187 3025 
Q 903 2953 641 2809 
L 641 3341 
Q 956 3463 1253 3523 
Q 1550 3584 1831 3584 
Q 2591 3584 2966 3190 
Q 3341 2797 3341 1997 
z
" transform="scale(0.015625)"/>
      <path id="DejaVuSans-62" d="M 3116 1747 
Q 3116 2381 2855 2742 
Q 2594 3103 2138 3103 
Q 1681 3103 1420 2742 
Q 1159 2381 1159 1747 
Q 1159 1113 1420 752 
Q 1681 391 2138 391 
Q 2594 391 2855 752 
Q 3116 1113 3116 1747 
z
M 1159 2969 
Q 1341 3281 1617 3432 
Q 1894 3584 2278 3584 
Q 2916 3584 3314 3078 
Q 3713 2572 3713 1747 
Q 3713 922 3314 415 
Q 2916 -91 2278 -91 
Q 1894 -91 1617 61 
Q 1341 213 1159 525 
L 1159 0 
L 581 0 
L 581 4863 
L 1159 4863 
L 1159 2969 
z
" transform="scale(0.015625)"/>
     </defs>
     <use xlink:href="#DejaVuSans-42"/>
     <use xlink:href="#DejaVuSans-46" x="68.603516"/>
     <use xlink:href="#DejaVuSans-31" x="126.123047"/>
     <use xlink:href="#DejaVuSans-36" x="189.746094"/>
     <use xlink:href="#DejaVuSans-20" x="253.369141"/>
     <use xlink:href="#DejaVuSans-4b" x="285.15625"/>
     <use xlink:href="#DejaVuSans-6d" x="350.732422"/>
     <use xlink:href="#DejaVuSans-65" x="448.144531"/>
     <use xlink:href="#DejaVuSans-61" x="509.667969"/>
     <use xlink:href="#DejaVuSans-6e" x="570.947266"/>
     <use xlink:href="#DejaVuSans-20" x="634.326172"/>
     <use xlink:href="#DejaVuSans-62" x="666.113281"/>
     <use xlink:href="#DejaVuSans-61" x="729.589844"/>
     <use xlink:href="#DejaVuSans-6e" x="790.869141"/>
     <use xlink:href="#DejaVuSans-6b" x="854.248047"/>
     <use xlink:href="#DejaVuSans-73" x="912.158203"/>
    </g>
    <!-- 4 × 1024 × 16 bit -->
    <g style="fill: #1c2935" transform="translate(306.419967 77.612689) scale(0.075 -0.075)">
     <defs>
      <path id="DejaVuSans-34" d="M 2419 4116 
L 825 1625 
L 2419 1625 
L 2419 4116 
z
M 2253 4666 
L 3047 4666 
L 3047 1625 
L 3713 1625 
L 3713 1100 
L 3047 1100 
L 3047 0 
L 2419 0 
L 2419 1100 
L 313 1100 
L 313 1709 
L 2253 4666 
z
" transform="scale(0.015625)"/>
      <path id="DejaVuSans-d7" d="M 4488 3438 
L 3059 2003 
L 4488 575 
L 4116 197 
L 2681 1631 
L 1247 197 
L 878 575 
L 2303 2003 
L 878 3438 
L 1247 3816 
L 2681 2381 
L 4116 3816 
L 4488 3438 
z
" transform="scale(0.015625)"/>
     </defs>
     <use xlink:href="#DejaVuSans-34"/>
     <use xlink:href="#DejaVuSans-20" x="63.623047"/>
     <use xlink:href="#DejaVuSans-d7" x="95.410156"/>
     <use xlink:href="#DejaVuSans-20" x="179.199219"/>
     <use xlink:href="#DejaVuSans-31" x="210.986328"/>
     <use xlink:href="#DejaVuSans-30" x="274.609375"/>
     <use xlink:href="#DejaVuSans-32" x="338.232422"/>
     <use xlink:href="#DejaVuSans-34" x="401.855469"/>
     <use xlink:href="#DejaVuSans-20" x="465.478516"/>
     <use xlink:href="#DejaVuSans-d7" x="497.265625"/>
     <use xlink:href="#DejaVuSans-20" x="581.054688"/>
     <use xlink:href="#DejaVuSans-31" x="612.841797"/>
     <use xlink:href="#DejaVuSans-36" x="676.464844"/>
     <use xlink:href="#DejaVuSans-20" x="740.087891"/>
     <use xlink:href="#DejaVuSans-62" x="771.875"/>
     <use xlink:href="#DejaVuSans-69" x="835.351562"/>
     <use xlink:href="#DejaVuSans-74" x="863.134766"/>
    </g>
    <!-- 8 KiB resident -->
    <g style="fill: #1c2935" transform="translate(314.119771 86.011049) scale(0.075 -0.075)">
     <defs>
      <path id="DejaVuSans-38" d="M 2034 2216 
Q 1584 2216 1326 1975 
Q 1069 1734 1069 1313 
Q 1069 891 1326 650 
Q 1584 409 2034 409 
Q 2484 409 2743 651 
Q 3003 894 3003 1313 
Q 3003 1734 2745 1975 
Q 2488 2216 2034 2216 
z
M 1403 2484 
Q 997 2584 770 2862 
Q 544 3141 544 3541 
Q 544 4100 942 4425 
Q 1341 4750 2034 4750 
Q 2731 4750 3128 4425 
Q 3525 4100 3525 3541 
Q 3525 3141 3298 2862 
Q 3072 2584 2669 2484 
Q 3125 2378 3379 2068 
Q 3634 1759 3634 1313 
Q 3634 634 3220 271 
Q 2806 -91 2034 -91 
Q 1263 -91 848 271 
Q 434 634 434 1313 
Q 434 1759 690 2068 
Q 947 2378 1403 2484 
z
M 1172 3481 
Q 1172 3119 1398 2916 
Q 1625 2713 2034 2713 
Q 2441 2713 2670 2916 
Q 2900 3119 2900 3481 
Q 2900 3844 2670 4047 
Q 2441 4250 2034 4250 
Q 1625 4250 1398 4047 
Q 1172 3844 1172 3481 
z
" transform="scale(0.015625)"/>
     </defs>
     <use xlink:href="#DejaVuSans-38"/>
     <use xlink:href="#DejaVuSans-20" x="63.623047"/>
     <use xlink:href="#DejaVuSans-4b" x="95.410156"/>
     <use xlink:href="#DejaVuSans-69" x="160.986328"/>
     <use xlink:href="#DejaVuSans-42" x="188.769531"/>
     <use xlink:href="#DejaVuSans-20" x="257.373047"/>
     <use xlink:href="#DejaVuSans-72" x="289.160156"/>
     <use xlink:href="#DejaVuSans-65" x="328.023438"/>
     <use xlink:href="#DejaVuSans-73" x="389.546875"/>
     <use xlink:href="#DejaVuSans-69" x="441.646484"/>
     <use xlink:href="#DejaVuSans-64" x="469.429688"/>
     <use xlink:href="#DejaVuSans-65" x="532.90625"/>
     <use xlink:href="#DejaVuSans-6e" x="594.429688"/>
     <use xlink:href="#DejaVuSans-74" x="657.808594"/>
    </g>
   </g>
   <g id="text_6">
    <!-- 4 score lanes -->
    <g style="fill: #1c2935" transform="translate(424.831373 69.21433) scale(0.075 -0.075)">
     <use xlink:href="#DejaVuSans-34"/>
     <use xlink:href="#DejaVuSans-20" x="63.623047"/>
     <use xlink:href="#DejaVuSans-73" x="95.410156"/>
     <use xlink:href="#DejaVuSans-63" x="147.509766"/>
     <use xlink:href="#DejaVuSans-6f" x="202.490234"/>
     <use xlink:href="#DejaVuSans-72" x="263.671875"/>
     <use xlink:href="#DejaVuSans-65" x="302.535156"/>
     <use xlink:href="#DejaVuSans-20" x="364.058594"/>
     <use xlink:href="#DejaVuSans-6c" x="395.845703"/>
     <use xlink:href="#DejaVuSans-61" x="423.628906"/>
     <use xlink:href="#DejaVuSans-6e" x="484.908203"/>
     <use xlink:href="#DejaVuSans-65" x="548.287109"/>
     <use xlink:href="#DejaVuSans-73" x="609.810547"/>
    </g>
    <!-- FP32 accumulation -->
    <g style="fill: #1c2935" transform="translate(413.920631 77.612689) scale(0.075 -0.075)">
     <defs>
      <path id="DejaVuSans-50" d="M 1259 4147 
L 1259 2394 
L 2053 2394 
Q 2494 2394 2734 2622 
Q 2975 2850 2975 3272 
Q 2975 3691 2734 3919 
Q 2494 4147 2053 4147 
L 1259 4147 
z
M 628 4666 
L 2053 4666 
Q 2838 4666 3239 4311 
Q 3641 3956 3641 3272 
Q 3641 2581 3239 2228 
Q 2838 1875 2053 1875 
L 1259 1875 
L 1259 0 
L 628 0 
L 628 4666 
z
" transform="scale(0.015625)"/>
      <path id="DejaVuSans-75" d="M 544 1381 
L 544 3500 
L 1119 3500 
L 1119 1403 
Q 1119 906 1312 657 
Q 1506 409 1894 409 
Q 2359 409 2629 706 
Q 2900 1003 2900 1516 
L 2900 3500 
L 3475 3500 
L 3475 0 
L 2900 0 
L 2900 538 
Q 2691 219 2414 64 
Q 2138 -91 1772 -91 
Q 1169 -91 856 284 
Q 544 659 544 1381 
z
M 1991 3584 
L 1991 3584 
z
" transform="scale(0.015625)"/>
     </defs>
     <use xlink:href="#DejaVuSans-46"/>
     <use xlink:href="#DejaVuSans-50" x="57.519531"/>
     <use xlink:href="#DejaVuSans-33" x="117.822266"/>
     <use xlink:href="#DejaVuSans-32" x="181.445312"/>
     <use xlink:href="#DejaVuSans-20" x="245.068359"/>
     <use xlink:href="#DejaVuSans-61" x="276.855469"/>
     <use xlink:href="#DejaVuSans-63" x="338.134766"/>
     <use xlink:href="#DejaVuSans-63" x="393.115234"/>
     <use xlink:href="#DejaVuSans-75" x="448.095703"/>
     <use xlink:href="#DejaVuSans-6d" x="511.474609"/>
     <use xlink:href="#DejaVuSans-75" x="608.886719"/>
     <use xlink:href="#DejaVuSans-6c" x="672.265625"/>
     <use xlink:href="#DejaVuSans-61" x="700.048828"/>
     <use xlink:href="#DejaVuSans-74" x="761.328125"/>
     <use xlink:href="#DejaVuSans-69" x="800.537109"/>
     <use xlink:href="#DejaVuSans-6f" x="828.320312"/>
     <use xlink:href="#DejaVuSans-6e" x="889.501953"/>
    </g>
    <!-- 32-bit radix Top-K -->
    <g style="fill: #1c2935" transform="translate(416.630006 86.011049) scale(0.075 -0.075)">
     <defs>
      <path id="DejaVuSans-2d" d="M 313 2009 
L 1997 2009 
L 1997 1497 
L 313 1497 
L 313 2009 
z
" transform="scale(0.015625)"/>
      <path id="DejaVuSans-78" d="M 3513 3500 
L 2247 1797 
L 3578 0 
L 2900 0 
L 1881 1375 
L 863 0 
L 184 0 
L 1544 1831 
L 300 3500 
L 978 3500 
L 1906 2253 
L 2834 3500 
L 3513 3500 
z
" transform="scale(0.015625)"/>
     </defs>
     <use xlink:href="#DejaVuSans-33"/>
     <use xlink:href="#DejaVuSans-32" x="63.623047"/>
     <use xlink:href="#DejaVuSans-2d" x="127.246094"/>
     <use xlink:href="#DejaVuSans-62" x="163.330078"/>
     <use xlink:href="#DejaVuSans-69" x="226.806641"/>
     <use xlink:href="#DejaVuSans-74" x="254.589844"/>
     <use xlink:href="#DejaVuSans-20" x="293.798828"/>
     <use xlink:href="#DejaVuSans-72" x="325.585938"/>
     <use xlink:href="#DejaVuSans-61" x="366.699219"/>
     <use xlink:href="#DejaVuSans-64" x="427.978516"/>
     <use xlink:href="#DejaVuSans-69" x="491.455078"/>
     <use xlink:href="#DejaVuSans-78" x="519.238281"/>
     <use xlink:href="#DejaVuSans-20" x="578.417969"/>
     <use xlink:href="#DejaVuSans-54" x="610.205078"/>
     <use xlink:href="#DejaVuSans-6f" x="654.289062"/>
     <use xlink:href="#DejaVuSans-70" x="715.470703"/>
     <use xlink:href="#DejaVuSans-2d" x="778.947266"/>
     <use xlink:href="#DejaVuSans-4b" x="815.03125"/>
    </g>
   </g>
   <g id="text_7">
    <!-- Local DMA + pooling -->
    <g style="fill: #1c2935" transform="translate(301.321138 143.740646) scale(0.075 -0.075)">
     <defs>
      <path id="DejaVuSans-4c" d="M 628 4666 
L 1259 4666 
L 1259 531 
L 3531 531 
L 3531 0 
L 628 0 
L 628 4666 
z
" transform="scale(0.015625)"/>
      <path id="DejaVuSans-2b" d="M 2944 4013 
L 2944 2272 
L 4684 2272 
L 4684 1741 
L 2944 1741 
L 2944 0 
L 2419 0 
L 2419 1741 
L 678 1741 
L 678 2272 
L 2419 2272 
L 2419 4013 
L 2944 4013 
z
" transform="scale(0.015625)"/>
      <path id="DejaVuSans-67" d="M 2906 1791 
Q 2906 2416 2648 2759 
Q 2391 3103 1925 3103 
Q 1463 3103 1205 2759 
Q 947 2416 947 1791 
Q 947 1169 1205 825 
Q 1463 481 1925 481 
Q 2391 481 2648 825 
Q 2906 1169 2906 1791 
z
M 3481 434 
Q 3481 -459 3084 -895 
Q 2688 -1331 1869 -1331 
Q 1566 -1331 1297 -1286 
Q 1028 -1241 775 -1147 
L 775 -588 
Q 1028 -725 1275 -790 
Q 1522 -856 1778 -856 
Q 2344 -856 2625 -561 
Q 2906 -266 2906 331 
L 2906 616 
Q 2728 306 2450 153 
Q 2172 0 1784 0 
Q 1141 0 747 490 
Q 353 981 353 1791 
Q 353 2603 747 3093 
Q 1141 3584 1784 3584 
Q 2172 3584 2450 3431 
Q 2728 3278 2906 2969 
L 2906 3500 
L 3481 3500 
L 3481 434 
z
" transform="scale(0.015625)"/>
     </defs>
     <use xlink:href="#DejaVuSans-4c"/>
     <use xlink:href="#DejaVuSans-6f" x="53.962891"/>
     <use xlink:href="#DejaVuSans-63" x="115.144531"/>
     <use xlink:href="#DejaVuSans-61" x="170.125"/>
     <use xlink:href="#DejaVuSans-6c" x="231.404297"/>
     <use xlink:href="#DejaVuSans-20" x="259.1875"/>
     <use xlink:href="#DejaVuSans-44" x="290.974609"/>
     <use xlink:href="#DejaVuSans-4d" x="367.976562"/>
     <use xlink:href="#DejaVuSans-41" x="454.255859"/>
     <use xlink:href="#DejaVuSans-20" x="522.664062"/>
     <use xlink:href="#DejaVuSans-2b" x="554.451172"/>
     <use xlink:href="#DejaVuSans-20" x="638.240234"/>
     <use xlink:href="#DejaVuSans-70" x="670.027344"/>
     <use xlink:href="#DejaVuSans-6f" x="733.503906"/>
     <use xlink:href="#DejaVuSans-6f" x="794.685547"/>
     <use xlink:href="#DejaVuSans-6c" x="855.867188"/>
     <use xlink:href="#DejaVuSans-69" x="883.650391"/>
     <use xlink:href="#DejaVuSans-6e" x="911.433594"/>
     <use xlink:href="#DejaVuSans-67" x="974.8125"/>
    </g>
    <!-- 32 B / request -->
    <g style="fill: #1c2935" transform="translate(313.821529 152.139005) scale(0.075 -0.075)">
     <defs>
      <path id="DejaVuSans-71" d="M 947 1747 
Q 947 1113 1208 752 
Q 1469 391 1925 391 
Q 2381 391 2643 752 
Q 2906 1113 2906 1747 
Q 2906 2381 2643 2742 
Q 2381 3103 1925 3103 
Q 1469 3103 1208 2742 
Q 947 2381 947 1747 
z
M 2906 525 
Q 2725 213 2448 61 
Q 2172 -91 1784 -91 
Q 1150 -91 751 415 
Q 353 922 353 1747 
Q 353 2572 751 3078 
Q 1150 3584 1784 3584 
Q 2172 3584 2448 3432 
Q 2725 3281 2906 2969 
L 2906 3500 
L 3481 3500 
L 3481 -1331 
L 2906 -1331 
L 2906 525 
z
" transform="scale(0.015625)"/>
     </defs>
     <use xlink:href="#DejaVuSans-33"/>
     <use xlink:href="#DejaVuSans-32" x="63.623047"/>
     <use xlink:href="#DejaVuSans-20" x="127.246094"/>
     <use xlink:href="#DejaVuSans-42" x="159.033203"/>
     <use xlink:href="#DejaVuSans-20" x="227.636719"/>
     <use xlink:href="#DejaVuSans-2f" x="259.423828"/>
     <use xlink:href="#DejaVuSans-20" x="293.115234"/>
     <use xlink:href="#DejaVuSans-72" x="324.902344"/>
     <use xlink:href="#DejaVuSans-65" x="363.765625"/>
     <use xlink:href="#DejaVuSans-71" x="425.289062"/>
     <use xlink:href="#DejaVuSans-75" x="488.765625"/>
     <use xlink:href="#DejaVuSans-65" x="552.144531"/>
     <use xlink:href="#DejaVuSans-73" x="613.667969"/>
     <use xlink:href="#DejaVuSans-74" x="665.767578"/>
    </g>
    <!-- FP32 → BF16 RNE -->
    <g style="fill: #1c2935" transform="translate(307.068013 160.537364) scale(0.075 -0.075)">
     <defs>
      <path id="DejaVuSans-2192" d="M 5050 2147 
L 5050 1866 
L 3822 638 
L 3447 1013 
L 4175 1741 
L 366 1741 
L 366 2272 
L 4175 2272 
L 3447 3000 
L 3822 3375 
L 5050 2147 
z
" transform="scale(0.015625)"/>
      <path id="DejaVuSans-4e" d="M 628 4666 
L 1478 4666 
L 3547 763 
L 3547 4666 
L 4159 4666 
L 4159 0 
L 3309 0 
L 1241 3903 
L 1241 0 
L 628 0 
L 628 4666 
z
" transform="scale(0.015625)"/>
     </defs>
     <use xlink:href="#DejaVuSans-46"/>
     <use xlink:href="#DejaVuSans-50" x="57.519531"/>
     <use xlink:href="#DejaVuSans-33" x="117.822266"/>
     <use xlink:href="#DejaVuSans-32" x="181.445312"/>
     <use xlink:href="#DejaVuSans-20" x="245.068359"/>
     <use xlink:href="#DejaVuSans-2192" x="276.855469"/>
     <use xlink:href="#DejaVuSans-20" x="360.644531"/>
     <use xlink:href="#DejaVuSans-42" x="392.431641"/>
     <use xlink:href="#DejaVuSans-46" x="461.035156"/>
     <use xlink:href="#DejaVuSans-31" x="518.554688"/>
     <use xlink:href="#DejaVuSans-36" x="582.177734"/>
     <use xlink:href="#DejaVuSans-20" x="645.800781"/>
     <use xlink:href="#DejaVuSans-52" x="677.587891"/>
     <use xlink:href="#DejaVuSans-4e" x="747.070312"/>
     <use xlink:href="#DejaVuSans-45" x="821.875"/>
    </g>
   </g>
   <g id="text_8">
    <!-- Host / DMA arbiter -->
    <g style="fill: #1c2935" transform="translate(205.40923 143.740646) scale(0.075 -0.075)">
     <defs>
      <path id="DejaVuSans-48" d="M 628 4666 
L 1259 4666 
L 1259 2753 
L 3553 2753 
L 3553 4666 
L 4184 4666 
L 4184 0 
L 3553 0 
L 3553 2222 
L 1259 2222 
L 1259 0 
L 628 0 
L 628 4666 
z
" transform="scale(0.015625)"/>
     </defs>
     <use xlink:href="#DejaVuSans-48"/>
     <use xlink:href="#DejaVuSans-6f" x="75.195312"/>
     <use xlink:href="#DejaVuSans-73" x="136.376953"/>
     <use xlink:href="#DejaVuSans-74" x="188.476562"/>
     <use xlink:href="#DejaVuSans-20" x="227.685547"/>
     <use xlink:href="#DejaVuSans-2f" x="259.472656"/>
     <use xlink:href="#DejaVuSans-20" x="293.164062"/>
     <use xlink:href="#DejaVuSans-44" x="324.951172"/>
     <use xlink:href="#DejaVuSans-4d" x="401.953125"/>
     <use xlink:href="#DejaVuSans-41" x="488.232422"/>
     <use xlink:href="#DejaVuSans-20" x="556.640625"/>
     <use xlink:href="#DejaVuSans-61" x="588.427734"/>
     <use xlink:href="#DejaVuSans-72" x="649.707031"/>
     <use xlink:href="#DejaVuSans-62" x="690.820312"/>
     <use xlink:href="#DejaVuSans-69" x="754.296875"/>
     <use xlink:href="#DejaVuSans-74" x="782.080078"/>
     <use xlink:href="#DejaVuSans-65" x="821.289062"/>
     <use xlink:href="#DejaVuSans-72" x="882.8125"/>
    </g>
    <!-- 4 host jobs -->
    <g style="fill: #1c2935" transform="translate(219.520949 152.139005) scale(0.075 -0.075)">
     <defs>
      <path id="DejaVuSans-6a" d="M 603 3500 
L 1178 3500 
L 1178 -63 
Q 1178 -731 923 -1031 
Q 669 -1331 103 -1331 
L -116 -1331 
L -116 -844 
L 38 -844 
Q 366 -844 484 -692 
Q 603 -541 603 -63 
L 603 3500 
z
M 603 4863 
L 1178 4863 
L 1178 4134 
L 603 4134 
L 603 4863 
z
" transform="scale(0.015625)"/>
     </defs>
     <use xlink:href="#DejaVuSans-34"/>
     <use xlink:href="#DejaVuSans-20" x="63.623047"/>
     <use xlink:href="#DejaVuSans-68" x="95.410156"/>
     <use xlink:href="#DejaVuSans-6f" x="158.789062"/>
     <use xlink:href="#DejaVuSans-73" x="219.970703"/>
     <use xlink:href="#DejaVuSans-74" x="272.070312"/>
     <use xlink:href="#DejaVuSans-20" x="311.279297"/>
     <use xlink:href="#DejaVuSans-6a" x="343.066406"/>
     <use xlink:href="#DejaVuSans-6f" x="370.849609"/>
     <use xlink:href="#DejaVuSans-62" x="432.03125"/>
     <use xlink:href="#DejaVuSans-73" x="495.507812"/>
    </g>
    <!-- 1 local request -->
    <g style="fill: #1c2935" transform="translate(212.295167 160.537364) scale(0.075 -0.075)">
     <use xlink:href="#DejaVuSans-31"/>
     <use xlink:href="#DejaVuSans-20" x="63.623047"/>
     <use xlink:href="#DejaVuSans-6c" x="95.410156"/>
     <use xlink:href="#DejaVuSans-6f" x="123.193359"/>
     <use xlink:href="#DejaVuSans-63" x="184.375"/>
     <use xlink:href="#DejaVuSans-61" x="239.355469"/>
     <use xlink:href="#DejaVuSans-6c" x="300.634766"/>
     <use xlink:href="#DejaVuSans-20" x="328.417969"/>
     <use xlink:href="#DejaVuSans-72" x="360.205078"/>
     <use xlink:href="#DejaVuSans-65" x="399.068359"/>
     <use xlink:href="#DejaVuSans-71" x="460.591797"/>
     <use xlink:href="#DejaVuSans-75" x="524.068359"/>
     <use xlink:href="#DejaVuSans-65" x="587.447266"/>
     <use xlink:href="#DejaVuSans-73" x="648.970703"/>
     <use xlink:href="#DejaVuSans-74" x="701.070312"/>
    </g>
   </g>
   <g id="text_9">
    <!-- Query buffer -->
    <g style="fill: #1c2935" transform="translate(425.817506 143.740646) scale(0.075 -0.075)">
     <defs>
      <path id="DejaVuSans-51" d="M 2522 4238 
Q 1834 4238 1429 3725 
Q 1025 3213 1025 2328 
Q 1025 1447 1429 934 
Q 1834 422 2522 422 
Q 3209 422 3611 934 
Q 4013 1447 4013 2328 
Q 4013 3213 3611 3725 
Q 3209 4238 2522 4238 
z
M 3406 84 
L 4238 -825 
L 3475 -825 
L 2784 -78 
Q 2681 -84 2626 -87 
Q 2572 -91 2522 -91 
Q 1538 -91 948 567 
Q 359 1225 359 2328 
Q 359 3434 948 4092 
Q 1538 4750 2522 4750 
Q 3503 4750 4090 4092 
Q 4678 3434 4678 2328 
Q 4678 1516 4351 937 
Q 4025 359 3406 84 
z
" transform="scale(0.015625)"/>
      <path id="DejaVuSans-79" d="M 2059 -325 
Q 1816 -950 1584 -1140 
Q 1353 -1331 966 -1331 
L 506 -1331 
L 506 -850 
L 844 -850 
Q 1081 -850 1212 -737 
Q 1344 -625 1503 -206 
L 1606 56 
L 191 3500 
L 800 3500 
L 1894 763 
L 2988 3500 
L 3597 3500 
L 2059 -325 
z
" transform="scale(0.015625)"/>
      <path id="DejaVuSans-66" d="M 2375 4863 
L 2375 4384 
L 1825 4384 
Q 1516 4384 1395 4259 
Q 1275 4134 1275 3809 
L 1275 3500 
L 2222 3500 
L 2222 3053 
L 1275 3053 
L 1275 0 
L 697 0 
L 697 3053 
L 147 3053 
L 147 3500 
L 697 3500 
L 697 3744 
Q 697 4328 969 4595 
Q 1241 4863 1831 4863 
L 2375 4863 
z
" transform="scale(0.015625)"/>
     </defs>
     <use xlink:href="#DejaVuSans-51"/>
     <use xlink:href="#DejaVuSans-75" x="78.710938"/>
     <use xlink:href="#DejaVuSans-65" x="142.089844"/>
     <use xlink:href="#DejaVuSans-72" x="203.613281"/>
     <use xlink:href="#DejaVuSans-79" x="244.726562"/>
     <use xlink:href="#DejaVuSans-20" x="303.90625"/>
     <use xlink:href="#DejaVuSans-62" x="335.693359"/>
     <use xlink:href="#DejaVuSans-75" x="399.169922"/>
     <use xlink:href="#DejaVuSans-66" x="462.548828"/>
     <use xlink:href="#DejaVuSans-66" x="497.753906"/>
     <use xlink:href="#DejaVuSans-65" x="532.958984"/>
     <use xlink:href="#DejaVuSans-72" x="594.482422"/>
    </g>
    <!-- 128 × BF16 -->
    <g style="fill: #1c2935" transform="translate(427.467506 152.139005) scale(0.075 -0.075)">
     <use xlink:href="#DejaVuSans-31"/>
     <use xlink:href="#DejaVuSans-32" x="63.623047"/>
     <use xlink:href="#DejaVuSans-38" x="127.246094"/>
     <use xlink:href="#DejaVuSans-20" x="190.869141"/>
     <use xlink:href="#DejaVuSans-d7" x="222.65625"/>
     <use xlink:href="#DejaVuSans-20" x="306.445312"/>
     <use xlink:href="#DejaVuSans-42" x="338.232422"/>
     <use xlink:href="#DejaVuSans-46" x="406.835938"/>
     <use xlink:href="#DejaVuSans-31" x="464.355469"/>
     <use xlink:href="#DejaVuSans-36" x="527.978516"/>
    </g>
    <!-- 256 B -->
    <g style="fill: #1c2935" transform="translate(438.730396 160.537364) scale(0.075 -0.075)">
     <use xlink:href="#DejaVuSans-32"/>
     <use xlink:href="#DejaVuSans-35" x="63.623047"/>
     <use xlink:href="#DejaVuSans-36" x="127.246094"/>
     <use xlink:href="#DejaVuSans-20" x="190.869141"/>
     <use xlink:href="#DejaVuSans-42" x="222.65625"/>
    </g>
   </g>
   <g id="text_10">
    <!-- Stacked DRAM model -->
    <g style="fill: #1c2935" transform="translate(50.992366 143.740646) scale(0.075 -0.075)">
     <use xlink:href="#DejaVuSans-53"/>
     <use xlink:href="#DejaVuSans-74" x="63.476562"/>
     <use xlink:href="#DejaVuSans-61" x="102.685547"/>
     <use xlink:href="#DejaVuSans-63" x="163.964844"/>
     <use xlink:href="#DejaVuSans-6b" x="218.945312"/>
     <use xlink:href="#DejaVuSans-65" x="273.230469"/>
     <use xlink:href="#DejaVuSans-64" x="334.753906"/>
     <use xlink:href="#DejaVuSans-20" x="398.230469"/>
     <use xlink:href="#DejaVuSans-44" x="430.017578"/>
     <use xlink:href="#DejaVuSans-52" x="507.019531"/>
     <use xlink:href="#DejaVuSans-41" x="572.501953"/>
     <use xlink:href="#DejaVuSans-4d" x="640.910156"/>
     <use xlink:href="#DejaVuSans-20" x="727.189453"/>
     <use xlink:href="#DejaVuSans-6d" x="758.976562"/>
     <use xlink:href="#DejaVuSans-6f" x="856.388672"/>
     <use xlink:href="#DejaVuSans-64" x="917.570312"/>
     <use xlink:href="#DejaVuSans-65" x="981.046875"/>
     <use xlink:href="#DejaVuSans-6c" x="1042.570312"/>
    </g>
    <!-- 8 channels, 32 B transactions -->
    <g style="fill: #1c2935" transform="translate(35.513069 152.139005) scale(0.075 -0.075)">
     <defs>
      <path id="DejaVuSans-2c" d="M 750 794 
L 1409 794 
L 1409 256 
L 897 -744 
L 494 -744 
L 750 256 
L 750 794 
z
" transform="scale(0.015625)"/>
     </defs>
     <use xlink:href="#DejaVuSans-38"/>
     <use xlink:href="#DejaVuSans-20" x="63.623047"/>
     <use xlink:href="#DejaVuSans-63" x="95.410156"/>
     <use xlink:href="#DejaVuSans-68" x="150.390625"/>
     <use xlink:href="#DejaVuSans-61" x="213.769531"/>
     <use xlink:href="#DejaVuSans-6e" x="275.048828"/>
     <use xlink:href="#DejaVuSans-6e" x="338.427734"/>
     <use xlink:href="#DejaVuSans-65" x="401.806641"/>
     <use xlink:href="#DejaVuSans-6c" x="463.330078"/>
     <use xlink:href="#DejaVuSans-73" x="491.113281"/>
     <use xlink:href="#DejaVuSans-2c" x="543.212891"/>
     <use xlink:href="#DejaVuSans-20" x="575"/>
     <use xlink:href="#DejaVuSans-33" x="606.787109"/>
     <use xlink:href="#DejaVuSans-32" x="670.410156"/>
     <use xlink:href="#DejaVuSans-20" x="734.033203"/>
     <use xlink:href="#DejaVuSans-42" x="765.820312"/>
     <use xlink:href="#DejaVuSans-20" x="834.423828"/>
     <use xlink:href="#DejaVuSans-74" x="866.210938"/>
     <use xlink:href="#DejaVuSans-72" x="905.419922"/>
     <use xlink:href="#DejaVuSans-61" x="946.533203"/>
     <use xlink:href="#DejaVuSans-6e" x="1007.8125"/>
     <use xlink:href="#DejaVuSans-73" x="1071.191406"/>
     <use xlink:href="#DejaVuSans-61" x="1123.291016"/>
     <use xlink:href="#DejaVuSans-63" x="1184.570312"/>
     <use xlink:href="#DejaVuSans-74" x="1239.550781"/>
     <use xlink:href="#DejaVuSans-69" x="1278.759766"/>
     <use xlink:href="#DejaVuSans-6f" x="1306.542969"/>
     <use xlink:href="#DejaVuSans-6e" x="1367.724609"/>
     <use xlink:href="#DejaVuSans-73" x="1431.103516"/>
    </g>
    <!-- 250,000 fs / native tick -->
    <g style="fill: #1c2935" transform="translate(47.861116 160.537364) scale(0.075 -0.075)">
     <defs>
      <path id="DejaVuSans-76" d="M 191 3500 
L 800 3500 
L 1894 563 
L 2988 3500 
L 3597 3500 
L 2284 0 
L 1503 0 
L 191 3500 
z
" transform="scale(0.015625)"/>
     </defs>
     <use xlink:href="#DejaVuSans-32"/>
     <use xlink:href="#DejaVuSans-35" x="63.623047"/>
     <use xlink:href="#DejaVuSans-30" x="127.246094"/>
     <use xlink:href="#DejaVuSans-2c" x="190.869141"/>
     <use xlink:href="#DejaVuSans-30" x="222.65625"/>
     <use xlink:href="#DejaVuSans-30" x="286.279297"/>
     <use xlink:href="#DejaVuSans-30" x="349.902344"/>
     <use xlink:href="#DejaVuSans-20" x="413.525391"/>
     <use xlink:href="#DejaVuSans-66" x="445.3125"/>
     <use xlink:href="#DejaVuSans-73" x="480.517578"/>
     <use xlink:href="#DejaVuSans-20" x="532.617188"/>
     <use xlink:href="#DejaVuSans-2f" x="564.404297"/>
     <use xlink:href="#DejaVuSans-20" x="598.095703"/>
     <use xlink:href="#DejaVuSans-6e" x="629.882812"/>
     <use xlink:href="#DejaVuSans-61" x="693.261719"/>
     <use xlink:href="#DejaVuSans-74" x="754.541016"/>
     <use xlink:href="#DejaVuSans-69" x="793.75"/>
     <use xlink:href="#DejaVuSans-76" x="821.533203"/>
     <use xlink:href="#DejaVuSans-65" x="880.712891"/>
     <use xlink:href="#DejaVuSans-20" x="942.236328"/>
     <use xlink:href="#DejaVuSans-74" x="974.023438"/>
     <use xlink:href="#DejaVuSans-69" x="1013.232422"/>
     <use xlink:href="#DejaVuSans-63" x="1041.015625"/>
     <use xlink:href="#DejaVuSans-6b" x="1095.996094"/>
    </g>
   </g>
   <g id="text_11">
    <!-- Kmean -->
    <g style="fill: #328277" transform="translate(345.589714 115.042105) scale(0.065 -0.065)">
     <use xlink:href="#DejaVuSans-4b"/>
     <use xlink:href="#DejaVuSans-6d" x="65.576172"/>
     <use xlink:href="#DejaVuSans-65" x="162.988281"/>
     <use xlink:href="#DejaVuSans-61" x="224.511719"/>
     <use xlink:href="#DejaVuSans-6e" x="285.791016"/>
    </g>
   </g>
   <g id="text_12">
    <!-- Result mask and ordered indices -->
    <g style="fill: #c56b25" transform="translate(295.446233 37.907368) scale(0.065 -0.065)">
     <use xlink:href="#DejaVuSans-52"/>
     <use xlink:href="#DejaVuSans-65" x="64.982422"/>
     <use xlink:href="#DejaVuSans-73" x="126.505859"/>
     <use xlink:href="#DejaVuSans-75" x="178.605469"/>
     <use xlink:href="#DejaVuSans-6c" x="241.984375"/>
     <use xlink:href="#DejaVuSans-74" x="269.767578"/>
     <use xlink:href="#DejaVuSans-20" x="308.976562"/>
     <use xlink:href="#DejaVuSans-6d" x="340.763672"/>
     <use xlink:href="#DejaVuSans-61" x="438.175781"/>
     <use xlink:href="#DejaVuSans-73" x="499.455078"/>
     <use xlink:href="#DejaVuSans-6b" x="551.554688"/>
     <use xlink:href="#DejaVuSans-20" x="609.464844"/>
     <use xlink:href="#DejaVuSans-61" x="641.251953"/>
     <use xlink:href="#DejaVuSans-6e" x="702.53125"/>
     <use xlink:href="#DejaVuSans-64" x="765.910156"/>
     <use xlink:href="#DejaVuSans-20" x="829.386719"/>
     <use xlink:href="#DejaVuSans-6f" x="861.173828"/>
     <use xlink:href="#DejaVuSans-72" x="922.355469"/>
     <use xlink:href="#DejaVuSans-64" x="961.71875"/>
     <use xlink:href="#DejaVuSans-65" x="1025.195312"/>
     <use xlink:href="#DejaVuSans-72" x="1086.71875"/>
     <use xlink:href="#DejaVuSans-65" x="1125.582031"/>
     <use xlink:href="#DejaVuSans-64" x="1187.105469"/>
     <use xlink:href="#DejaVuSans-20" x="1250.582031"/>
     <use xlink:href="#DejaVuSans-69" x="1282.369141"/>
     <use xlink:href="#DejaVuSans-6e" x="1310.152344"/>
     <use xlink:href="#DejaVuSans-64" x="1373.53125"/>
     <use xlink:href="#DejaVuSans-69" x="1437.007812"/>
     <use xlink:href="#DejaVuSans-63" x="1464.791016"/>
     <use xlink:href="#DejaVuSans-65" x="1519.771484"/>
     <use xlink:href="#DejaVuSans-73" x="1581.294922"/>
    </g>
   </g>
   <g id="text_13">
    <!-- Real instruction and data requests -->
    <g style="fill: #245b84" transform="translate(29.032154 116.532632) scale(0.07 -0.07)">
     <use xlink:href="#DejaVuSans-52"/>
     <use xlink:href="#DejaVuSans-65" x="64.982422"/>
     <use xlink:href="#DejaVuSans-61" x="126.505859"/>
     <use xlink:href="#DejaVuSans-6c" x="187.785156"/>
     <use xlink:href="#DejaVuSans-20" x="215.568359"/>
     <use xlink:href="#DejaVuSans-69" x="247.355469"/>
     <use xlink:href="#DejaVuSans-6e" x="275.138672"/>
     <use xlink:href="#DejaVuSans-73" x="338.517578"/>
     <use xlink:href="#DejaVuSans-74" x="390.617188"/>
     <use xlink:href="#DejaVuSans-72" x="429.826172"/>
     <use xlink:href="#DejaVuSans-75" x="470.939453"/>
     <use xlink:href="#DejaVuSans-63" x="534.318359"/>
     <use xlink:href="#DejaVuSans-74" x="589.298828"/>
     <use xlink:href="#DejaVuSans-69" x="628.507812"/>
     <use xlink:href="#DejaVuSans-6f" x="656.291016"/>
     <use xlink:href="#DejaVuSans-6e" x="717.472656"/>
     <use xlink:href="#DejaVuSans-20" x="780.851562"/>
     <use xlink:href="#DejaVuSans-61" x="812.638672"/>
     <use xlink:href="#DejaVuSans-6e" x="873.917969"/>
     <use xlink:href="#DejaVuSans-64" x="937.296875"/>
     <use xlink:href="#DejaVuSans-20" x="1000.773438"/>
     <use xlink:href="#DejaVuSans-64" x="1032.560547"/>
     <use xlink:href="#DejaVuSans-61" x="1096.037109"/>
     <use xlink:href="#DejaVuSans-74" x="1157.316406"/>
     <use xlink:href="#DejaVuSans-61" x="1196.525391"/>
     <use xlink:href="#DejaVuSans-20" x="1257.804688"/>
     <use xlink:href="#DejaVuSans-72" x="1289.591797"/>
     <use xlink:href="#DejaVuSans-65" x="1328.455078"/>
     <use xlink:href="#DejaVuSans-71" x="1389.978516"/>
     <use xlink:href="#DejaVuSans-75" x="1453.455078"/>
     <use xlink:href="#DejaVuSans-65" x="1516.833984"/>
     <use xlink:href="#DejaVuSans-73" x="1578.357422"/>
     <use xlink:href="#DejaVuSans-74" x="1630.457031"/>
     <use xlink:href="#DejaVuSans-73" x="1669.666016"/>
    </g>
   </g>
   <g id="text_14">
    <!-- One SystemC kernel  |  1 fs time resolution  |  Real memory completions -->
    <g style="fill: #727c87" transform="translate(133.756641 212.298947) scale(0.07 -0.07)">
     <defs>
      <path id="DejaVuSans-7c" d="M 1344 4891 
L 1344 -1509 
L 813 -1509 
L 813 4891 
L 1344 4891 
z
" transform="scale(0.015625)"/>
     </defs>
     <use xlink:href="#DejaVuSans-4f"/>
     <use xlink:href="#DejaVuSans-6e" x="78.710938"/>
     <use xlink:href="#DejaVuSans-65" x="142.089844"/>
     <use xlink:href="#DejaVuSans-20" x="203.613281"/>
     <use xlink:href="#DejaVuSans-53" x="235.400391"/>
     <use xlink:href="#DejaVuSans-79" x="298.876953"/>
     <use xlink:href="#DejaVuSans-73" x="358.056641"/>
     <use xlink:href="#DejaVuSans-74" x="410.15625"/>
     <use xlink:href="#DejaVuSans-65" x="449.365234"/>
     <use xlink:href="#DejaVuSans-6d" x="510.888672"/>
     <use xlink:href="#DejaVuSans-43" x="608.300781"/>
     <use xlink:href="#DejaVuSans-20" x="678.125"/>
     <use xlink:href="#DejaVuSans-6b" x="709.912109"/>
     <use xlink:href="#DejaVuSans-65" x="764.197266"/>
     <use xlink:href="#DejaVuSans-72" x="825.720703"/>
     <use xlink:href="#DejaVuSans-6e" x="865.083984"/>
     <use xlink:href="#DejaVuSans-65" x="928.462891"/>
     <use xlink:href="#DejaVuSans-6c" x="989.986328"/>
     <use xlink:href="#DejaVuSans-20" x="1017.769531"/>
     <use xlink:href="#DejaVuSans-20" x="1049.556641"/>
     <use xlink:href="#DejaVuSans-7c" x="1081.34375"/>
     <use xlink:href="#DejaVuSans-20" x="1115.035156"/>
     <use xlink:href="#DejaVuSans-20" x="1146.822266"/>
     <use xlink:href="#DejaVuSans-31" x="1178.609375"/>
     <use xlink:href="#DejaVuSans-20" x="1242.232422"/>
     <use xlink:href="#DejaVuSans-66" x="1274.019531"/>
     <use xlink:href="#DejaVuSans-73" x="1309.224609"/>
     <use xlink:href="#DejaVuSans-20" x="1361.324219"/>
     <use xlink:href="#DejaVuSans-74" x="1393.111328"/>
     <use xlink:href="#DejaVuSans-69" x="1432.320312"/>
     <use xlink:href="#DejaVuSans-6d" x="1460.103516"/>
     <use xlink:href="#DejaVuSans-65" x="1557.515625"/>
     <use xlink:href="#DejaVuSans-20" x="1619.039062"/>
     <use xlink:href="#DejaVuSans-72" x="1650.826172"/>
     <use xlink:href="#DejaVuSans-65" x="1689.689453"/>
     <use xlink:href="#DejaVuSans-73" x="1751.212891"/>
     <use xlink:href="#DejaVuSans-6f" x="1803.3125"/>
     <use xlink:href="#DejaVuSans-6c" x="1864.494141"/>
     <use xlink:href="#DejaVuSans-75" x="1892.277344"/>
     <use xlink:href="#DejaVuSans-74" x="1955.65625"/>
     <use xlink:href="#DejaVuSans-69" x="1994.865234"/>
     <use xlink:href="#DejaVuSans-6f" x="2022.648438"/>
     <use xlink:href="#DejaVuSans-6e" x="2083.830078"/>
     <use xlink:href="#DejaVuSans-20" x="2147.208984"/>
     <use xlink:href="#DejaVuSans-20" x="2178.996094"/>
     <use xlink:href="#DejaVuSans-7c" x="2210.783203"/>
     <use xlink:href="#DejaVuSans-20" x="2244.474609"/>
     <use xlink:href="#DejaVuSans-20" x="2276.261719"/>
     <use xlink:href="#DejaVuSans-52" x="2308.048828"/>
     <use xlink:href="#DejaVuSans-65" x="2373.03125"/>
     <use xlink:href="#DejaVuSans-61" x="2434.554688"/>
     <use xlink:href="#DejaVuSans-6c" x="2495.833984"/>
     <use xlink:href="#DejaVuSans-20" x="2523.617188"/>
     <use xlink:href="#DejaVuSans-6d" x="2555.404297"/>
     <use xlink:href="#DejaVuSans-65" x="2652.816406"/>
     <use xlink:href="#DejaVuSans-6d" x="2714.339844"/>
     <use xlink:href="#DejaVuSans-6f" x="2811.751953"/>
     <use xlink:href="#DejaVuSans-72" x="2872.933594"/>
     <use xlink:href="#DejaVuSans-79" x="2914.046875"/>
     <use xlink:href="#DejaVuSans-20" x="2973.226562"/>
     <use xlink:href="#DejaVuSans-63" x="3005.013672"/>
     <use xlink:href="#DejaVuSans-6f" x="3059.994141"/>
     <use xlink:href="#DejaVuSans-6d" x="3121.175781"/>
     <use xlink:href="#DejaVuSans-70" x="3218.587891"/>
     <use xlink:href="#DejaVuSans-6c" x="3282.064453"/>
     <use xlink:href="#DejaVuSans-65" x="3309.847656"/>
     <use xlink:href="#DejaVuSans-74" x="3371.371094"/>
     <use xlink:href="#DejaVuSans-69" x="3410.580078"/>
     <use xlink:href="#DejaVuSans-6f" x="3438.363281"/>
     <use xlink:href="#DejaVuSans-6e" x="3499.544922"/>
     <use xlink:href="#DejaVuSans-73" x="3562.923828"/>
    </g>
   </g>
  </g>
 </g>
 <defs>
  <clipPath id="p9740d85cb8">
   <rect x="2.88" y="2.88" width="514.8" height="212.4"/>
  </clipPath>
 </defs>
</svg>
